font.ufo
<glyph name="arrowdblup" format="1">
  <advance width="619"/>
  <unicode hex="21D1"/>
  <outline>
    <contour>
      <point x="275" y="-25" type="line"/>
      <point x="343" y="-25" type="line"/>
      <point x="343" y="414" type="line"/>
      <point x="530" y="213" type="line"/>
      <point x="577" y="255" type="line"/>
      <point x="311" y="527" type="line"/>
      <point x="307" y="527" type="line"/>
      <point x="42" y="255" type="line"/>
      <point x="88" y="213" type="line"/>
      <point x="275" y="414" type="line"/>
    </contour>
  </outline>
</glyph>
<glyph name="arrowdblright" format="1">
  <advance width="619"/>
  <unicode hex="21D2"/>
  <outline>
    <contour>
      <point x="319" y="-15" type="line"/>
      <point x="591" y="250" type="line"/>
      <point x="591" y="254" type="line"/>
      <point x="319" y="519" type="line"/>
      <point x="276" y="473" type="line"/>
      <point x="477" y="286" type="line"/>
      <point x="39" y="286" type="line"/>
      <point x="39" y="218" type="line"/>
      <point x="477" y="218" type="line"/>
      <point x="276" y="31" type="line"/>
    </contour>
  </outline>
</glyph>
<glyph name="arrowdbldown" format="1">
  <advance width="619"/>
  <unicode hex="21D3"/>
  <outline>
    <contour>
      <point x="307" y="-25" type="line"/>
      <point x="311" y="-25" type="line"/>
      <point x="577" y="248" type="line"/>
      <point x="530" y="290" type="line"/>
      <point x="343" y="89" type="line"/>
      <point x="343" y="527" type="line"/>
      <point x="275" y="527" type="line"/>
      <point x="275" y="89" type="line"/>
      <point x="88" y="290" type="line"/>
      <point x="42" y="248" type="line"/>
    </contour>
  </outline>
</glyph>
<glyph name="Aie" format="1">
  <advance width="822"/>
  <outline>
    <component base="AE"/>
    <contour>
      <point x="569" y="694" type="move" name="aboveUC"/>
    </contour>
  </outline>
</glyph>
<glyph name="Alpha" format="1">
  <advance width="544"/>
  <outline>
    <component base="A"/>
    <contour>
      <point x="270" y="676" type="move" name="aboveUC"/>
    </contour>
    <contour>
      <point x="270" y="-20" type="move" name="belowLC"/>
    </contour>
  </outline>
</glyph>
<glyph name="Alphalatin" format="1">
  <advance width="653"/>
  <outline>
    <contour>
      <point x="318" y="-12" type="curve" smooth="yes"/>
      <point x="396" y="-12"/>
      <point x="467" y="30"/>
      <point x="518" y="84" type="curve"/>
      <point x="522" y="84" type="line"/>
      <point x="522" y="72" type="line"/>
      <point x="530" y="14"/>
      <point x="556" y="-12"/>
      <point x="598" y="-12" type="curve" smooth="yes"/>
      <point x="620" y="-12"/>
      <point x="634" y="-7"/>
      <point x="646" y="-3" type="curve"/>
      <point x="635" y="64" type="line"/>
      <point x="629" y="62"/>
      <point x="622" y="61"/>
      <point x="617" y="61" type="curve" smooth="yes"/>
      <point x="605" y="61"/>
      <point x="594" y="72"/>
      <point x="594" y="99" type="curve" smooth="yes"/>
      <point x="594" y="649" type="line"/>
      <point x="527" y="649" type="line"/>
      <point x="521" y="588" type="line"/>
      <point x="518" y="588" type="line"/>
      <point x="460" y="640"/>
      <point x="406" y="667"/>
      <point x="334" y="667" type="curve" smooth="yes"/>
      <point x="186" y="667"/>
      <point x="52" y="537"/>
      <point x="52" y="327" type="curve" smooth="yes"/>
      <point x="52" y="111"/>
      <point x="156" y="-12"/>
    </contour>
    <contour>
      <point x="330" y="61" type="curve" smooth="yes"/>
      <point x="209" y="61"/>
      <point x="138" y="161"/>
      <point x="138" y="329" type="curve" smooth="yes"/>
      <point x="138" y="489"/>
      <point x="229" y="595"/>
      <point x="339" y="595" type="curve" smooth="yes"/>
      <point x="396" y="595"/>
      <point x="450" y="577"/>
      <point x="509" y="524" type="curve"/>
      <point x="509" y="157" type="line"/>
      <point x="451" y="93"/>
      <point x="394" y="61"/>
    </contour>
    <contour>
      <point x="331" y="678" type="move" name="aboveUC"/>
    </contour>
    <contour>
      <point x="331" y="0" type="move" name="ogonekUC"/>
    </contour>
    <contour>
      <point x="331" y="-22" type="move" name="belowLC"/>
    </contour>
  </outline>
</glyph>
<glyph name="Betalatin" format="1">
  <advance width="588"/>
  <outline>
    <contour>
      <point x="90" y="-188" type="line"/>
      <point x="161" y="-188" type="line"/>
      <point x="170" y="8" type="line"/>
      <point x="166" y="56" type="line"/>
      <point x="90" y="0" type="line"/>
    </contour>
    <component base="B"/>
  </outline>
</glyph>
<glyph name="Bhook" format="1">
  <advance width="726"/>
  <outline>
    <contour>
      <point x="422" y="656" type="line"/>
      <point x="228" y="656" type="line" smooth="yes"/>
      <point x="112" y="656"/>
      <point x="40" y="603"/>
      <point x="40" y="501" type="curve" smooth="yes"/>
      <point x="40" y="446"/>
      <point x="61" y="403"/>
      <point x="102" y="379" type="curve"/>
      <point x="134" y="424" type="line"/>
      <point x="113" y="441"/>
      <point x="101" y="464"/>
      <point x="101" y="497" type="curve" smooth="yes"/>
      <point x="101" y="561"/>
      <point x="145" y="590"/>
      <point x="212" y="590" type="curve" smooth="yes"/>
      <point x="380" y="590" type="line"/>
    </contour>
    <component base="B" xOffset="138"/>
    <contour>
      <point x="425" y="678" type="move" name="aboveUC"/>
    </contour>
    <contour>
      <point x="440" y="-22" type="move" name="belowLC"/>
    </contour>
  </outline>
</glyph>
<glyph name="Bhook.sc" format="1">
  <advance width="633"/>
  <outline>
    <contour>
      <point x="100" y="280" type="curve"/>
      <point x="129" y="321" type="line"/>
      <point x="110" y="335"/>
      <point x="100" y="355"/>
      <point x="100" y="385" type="curve" smooth="yes"/>
      <point x="100" y="432"/>
      <point x="133" y="456"/>
      <point x="184" y="456" type="curve" smooth="yes"/>
      <point x="310" y="456" type="line"/>
      <point x="341" y="518" type="line"/>
      <point x="198" y="518" type="line" smooth="yes"/>
      <point x="103" y="518"/>
      <point x="43" y="472"/>
      <point x="43" y="386" type="curve" smooth="yes"/>
      <point x="43" y="337"/>
      <point x="62" y="300"/>
    </contour>
    <component base="B.sc" xOffset="108"/>
    <contour>
      <point x="384" y="563" type="move" name="aboveUC"/>
    </contour>
    <contour>
      <point x="394" y="-22" type="move" name="belowLC"/>
    </contour>
  </outline>
</glyph>
<glyph name="Chi.sc" format="1">
  <advance width="453"/>
  <outline>
    <component base="X.sc"/>
    <contour>
      <point x="229" y="561" type="move" name="aboveUC"/>
    </contour>
  </outline>
</glyph>
<glyph name="Chilatin" format="1">
  <advance width="513"/>
  <outline>
    <contour>
      <point x="15" y="-188" type="line"/>
      <point x="103" y="-188" type="line"/>
      <point x="198" y="40" type="line" smooth="yes"/>
      <point x="214" y="82"/>
      <point x="231" y="124"/>
      <point x="250" y="175" type="curve"/>
      <point x="254" y="175" type="line"/>
      <point x="275" y="124"/>
      <point x="293" y="82"/>
      <point x="310" y="40" type="curve" smooth="yes"/>
      <point x="406" y="-188" type="line"/>
      <point x="498" y="-188" type="line"/>
      <point x="307" y="243" type="line"/>
      <point x="486" y="656" type="line"/>
      <point x="398" y="656" type="line"/>
      <point x="311" y="440" type="line" smooth="yes"/>
      <point x="295" y="402"/>
      <point x="282" y="367"/>
      <point x="264" y="318" type="curve"/>
      <point x="260" y="318" type="line"/>
      <point x="240" y="367"/>
      <point x="226" y="402"/>
      <point x="209" y="440" type="curve" smooth="yes"/>
      <point x="120" y="656" type="line"/>
      <point x="28" y="656" type="line"/>
      <point x="206" y="248" type="line"/>
    </contour>
  </outline>
</glyph>
<glyph name="Chook" format="1">
  <advance width="571"/>
  <outline>
    <contour>
      <point x="450" y="588" type="curve"/>
      <point x="523" y="587" type="line"/>
      <point x="499" y="623"/>
      <point x="491" y="648"/>
      <point x="491" y="683" type="curve" smooth="yes"/>
      <point x="491" y="713"/>
      <point x="510" y="737"/>
      <point x="545" y="737" type="curve" smooth="yes"/>
      <point x="558" y="737"/>
      <point x="568" y="732"/>
      <point x="578" y="728" type="curve"/>
      <point x="594" y="791" type="line"/>
      <point x="578" y="797"/>
      <point x="559" y="804"/>
      <point x="532" y="804" type="curve" smooth="yes"/>
      <point x="465" y="804"/>
      <point x="419" y="759"/>
      <point x="419" y="695" type="curve" smooth="yes"/>
      <point x="419" y="659"/>
      <point x="427" y="629"/>
    </contour>
    <component base="C"/>
  </outline>
</glyph>
<glyph name="Dhook.sc" format="1">
  <advance width="662"/>
  <outline>
    <contour>
      <point x="100" y="280" type="curve"/>
      <point x="130" y="321" type="line"/>
      <point x="111" y="334"/>
      <point x="102" y="354"/>
      <point x="102" y="383" type="curve" smooth="yes"/>
      <point x="102" y="429"/>
      <point x="135" y="452"/>
      <point x="185" y="452" type="curve" smooth="yes"/>
      <point x="310" y="452" type="line"/>
      <point x="341" y="518" type="line"/>
      <point x="198" y="518" type="line" smooth="yes"/>
      <point x="103" y="518"/>
      <point x="43" y="472"/>
      <point x="43" y="386" type="curve" smooth="yes"/>
      <point x="43" y="337"/>
      <point x="62" y="300"/>
    </contour>
    <component base="D.sc" xOffset="108"/>
    <contour>
      <point x="391" y="563" type="move" name="aboveUC"/>
    </contour>
    <contour>
      <point x="388" y="-22" type="move" name="belowLC"/>
    </contour>
  </outline>
</glyph>
<glyph name="Eopen" format="1">
  <advance width="554"/>
  <outline>
    <contour>
      <point x="278" y="-12" type="curve" smooth="yes"/>
      <point x="147" y="-12"/>
      <point x="42" y="60"/>
      <point x="42" y="186" type="curve" smooth="yes"/>
      <point x="42" y="276"/>
      <point x="98" y="333"/>
      <point x="174" y="348" type="curve"/>
      <point x="174" y="352" type="line"/>
      <point x="111" y="375"/>
      <point x="76" y="431"/>
      <point x="76" y="500" type="curve" smooth="yes"/>
      <point x="76" y="605"/>
      <point x="161" y="668"/>
      <point x="284" y="668" type="curve" smooth="yes"/>
      <point x="364" y="668"/>
      <point x="438" y="636"/>
      <point x="485" y="590" type="curve"/>
      <point x="440" y="534" type="line"/>
      <point x="400" y="571"/>
      <point x="347" y="595"/>
      <point x="287" y="595" type="curve" smooth="yes"/>
      <point x="213" y="595"/>
      <point x="158" y="559"/>
      <point x="158" y="490" type="curve" smooth="yes"/>
      <point x="158" y="416"/>
      <point x="206" y="377"/>
      <point x="321" y="377" type="curve" smooth="yes"/>
      <point x="375" y="377" type="line"/>
      <point x="375" y="313" type="line"/>
      <point x="301" y="313" type="line" smooth="yes"/>
      <point x="189" y="313"/>
      <point x="124" y="274"/>
      <point x="124" y="190" type="curve" smooth="yes"/>
      <point x="124" y="107"/>
      <point x="194" y="61"/>
      <point x="279" y="61" type="curve" smooth="yes"/>
      <point x="355" y="61"/>
      <point x="409" y="83"/>
      <point x="467" y="141" type="curve"/>
      <point x="514" y="84" type="line"/>
      <point x="448" y="16"/>
      <point x="373" y="-12"/>
    </contour>
    <contour>
      <point x="275" y="678" type="move" name="aboveUC"/>
    </contour>
    <contour>
      <point x="289" y="0" type="move" name="baseLC"/>
    </contour>
    <contour>
      <point x="289" y="-22" type="move" name="belowLC"/>
    </contour>
  </outline>
</glyph>
<glyph name="Eopen.sc" format="1">
  <advance width="486"/>
  <outline>
    <contour>
      <point x="243" y="-12" type="curve" smooth="yes"/>
      <point x="323" y="-12"/>
      <point x="386" y="11"/>
      <point x="444" y="63" type="curve"/>
      <point x="402" y="119" type="line"/>
      <point x="353" y="76"/>
      <point x="306" y="55"/>
      <point x="243" y="55" type="curve" smooth="yes"/>
      <point x="176" y="55"/>
      <point x="121" y="89"/>
      <point x="121" y="150" type="curve" smooth="yes"/>
      <point x="121" y="213"/>
      <point x="172" y="243"/>
      <point x="261" y="243" type="curve" smooth="yes"/>
      <point x="325" y="243" type="line"/>
      <point x="325" y="299" type="line"/>
      <point x="277" y="299" type="line" smooth="yes"/>
      <point x="186" y="299"/>
      <point x="149" y="327"/>
      <point x="149" y="383" type="curve" smooth="yes"/>
      <point x="149" y="432"/>
      <point x="193" y="463"/>
      <point x="251" y="463" type="curve" smooth="yes"/>
      <point x="298" y="463"/>
      <point x="344" y="445"/>
      <point x="379" y="412" type="curve"/>
      <point x="421" y="467" type="line"/>
      <point x="379" y="504"/>
      <point x="316" y="530"/>
      <point x="249" y="530" type="curve" smooth="yes"/>
      <point x="139" y="530"/>
      <point x="67" y="475"/>
      <point x="67" y="392" type="curve" smooth="yes"/>
      <point x="67" y="338"/>
      <point x="97" y="295"/>
      <point x="149" y="277" type="curve"/>
      <point x="149" y="273" type="line"/>
      <point x="86" y="261"/>
      <point x="39" y="216"/>
      <point x="39" y="148" type="curve" smooth="yes"/>
      <point x="39" y="47"/>
      <point x="129" y="-12"/>
    </contour>
    <contour>
      <point x="237" y="575" type="move" name="aboveUC"/>
    </contour>
    <contour>
      <point x="236" y="0" type="move" name="baseLC"/>
    </contour>
    <contour>
      <point x="236" y="-22" type="move" name="belowLC"/>
    </contour>
  </outline>
</glyph>
<glyph name="Eopen.sups" format="1">
  <advance width="361"/>
  <outline>
    <contour>
      <point x="185" y="387" type="curve" smooth="yes"/>
      <point x="247" y="387"/>
      <point x="298" y="405"/>
      <point x="343" y="449" type="curve"/>
      <point x="308" y="491" type="line"/>
      <point x="270" y="455"/>
      <point x="233" y="441"/>
      <point x="185" y="441" type="curve" smooth="yes"/>
      <point x="130" y="441"/>
      <point x="86" y="469"/>
      <point x="86" y="521" type="curve" smooth="yes"/>
      <point x="86" y="573"/>
      <point x="127" y="598"/>
      <point x="198" y="598" type="curve" smooth="yes"/>
      <point x="249" y="598" type="line"/>
      <point x="249" y="644" type="line"/>
      <point x="211" y="644" type="line" smooth="yes"/>
      <point x="138" y="644"/>
      <point x="108" y="669"/>
      <point x="108" y="715" type="curve" smooth="yes"/>
      <point x="108" y="758"/>
      <point x="143" y="780"/>
      <point x="190" y="780" type="curve" smooth="yes"/>
      <point x="230" y="780"/>
      <point x="263" y="766"/>
      <point x="290" y="741" type="curve"/>
      <point x="324" y="782" type="line"/>
      <point x="291" y="813"/>
      <point x="242" y="835"/>
      <point x="189" y="835" type="curve" smooth="yes"/>
      <point x="103" y="835"/>
      <point x="46" y="792"/>
      <point x="46" y="723" type="curve" smooth="yes"/>
      <point x="46" y="678"/>
      <point x="69" y="641"/>
      <point x="110" y="626" type="curve"/>
      <point x="110" y="623" type="line"/>
      <point x="61" y="613"/>
      <point x="24" y="576"/>
      <point x="24" y="518" type="curve" smooth="yes"/>
      <point x="24" y="433"/>
      <point x="95" y="387"/>
    </contour>
  </outline>
</glyph>
<glyph name="Epsilon" format="1">
  <advance width="527"/>
  <outline>
    <component base="E"/>
    <contour>
      <point x="285" y="676" type="move" name="aboveUC"/>
    </contour>
  </outline>
</glyph>
<glyph name="Eta" format="1">
  <advance width="652"/>
  <outline>
    <component base="H"/>
    <contour>
      <point x="325" y="676" type="move" name="aboveUC"/>
    </contour>
    <contour>
      <point x="325" y="-20" type="move" name="belowLC"/>
    </contour>
  </outline>
</glyph>
<glyph name="Eth" format="1">
  <advance width="638"/>
  <outline>
    <contour>
      <point x="33" y="321" type="line"/>
      <point x="344" y="321" type="line"/>
      <point x="344" y="368" type="line"/>
      <point x="114" y="368" type="line"/>
      <point x="33" y="364" type="line"/>
    </contour>
    <component base="D" xOffset="22"/>
    <contour>
      <point x="319" y="676" type="move" name="aboveUC"/>
    </contour>
    <contour>
      <point x="319" y="-20" type="move" name="belowLC"/>
    </contour>
  </outline>
</glyph>
<glyph name="Eturned" format="1">
  <advance width="527"/>
  <outline>
    <component base="E" xScale="-1.0" xOffset="527"/>
    <contour>
      <point x="247" y="678" type="move" name="aboveUC"/>
    </contour>
    <contour>
      <point x="260" y="-22" type="move" name="belowLC"/>
    </contour>
  </outline>
</glyph>
<glyph name="Ezh" format="1">
  <advance width="540"/>
  <outline>
    <contour>
      <point x="266" y="-12" type="curve" smooth="yes"/>
      <point x="388" y="-12"/>
      <point x="508" y="63"/>
      <point x="508" y="202" type="curve" smooth="yes"/>
      <point x="508" y="339"/>
      <point x="382" y="405"/>
      <point x="262" y="387" type="curve"/>
      <point x="480" y="616" type="line"/>
      <point x="480" y="657" type="line"/>
      <point x="79" y="657" type="line"/>
      <point x="79" y="593" type="line"/>
      <point x="367" y="593" type="line"/>
      <point x="150" y="361" type="line"/>
      <point x="182" y="315" type="line"/>
      <point x="205" y="326"/>
      <point x="220" y="331"/>
      <point x="248" y="331" type="curve" smooth="yes"/>
      <point x="343" y="331"/>
      <point x="424" y="288"/>
      <point x="424" y="198" type="curve" smooth="yes"/>
      <point x="424" y="109"/>
      <point x="354" y="53"/>
      <point x="260" y="53" type="curve" smooth="yes"/>
      <point x="178" y="53"/>
      <point x="116" y="96"/>
      <point x="84" y="130" type="curve"/>
      <point x="44" y="79" type="line"/>
      <point x="82" y="40"/>
      <point x="159" y="-12"/>
    </contour>
    <contour>
      <point x="278" y="682" type="move" name="aboveUC"/>
    </contour>
    <contour>
      <point x="282" y="-22" type="move" name="belowLC"/>
    </contour>
  </outline>
</glyph>
<glyph name="Fhook.alt" format="1">
  <advance width="494"/>
  <outline>
    <contour>
      <point x="39" y="-165" type="curve" smooth="yes"/>
      <point x="133" y="-165"/>
      <point x="173" y="-103"/>
      <point x="173" y="-3" type="curve" smooth="yes"/>
      <point x="173" y="294" type="line"/>
      <point x="423" y="294" type="line"/>
      <point x="423" y="364" type="line"/>
      <point x="173" y="364" type="line"/>
      <point x="173" y="586" type="line"/>
      <point x="468" y="586" type="line"/>
      <point x="468" y="656" type="line"/>
      <point x="90" y="656" type="line"/>
      <point x="90" y="0" type="line" smooth="yes"/>
      <point x="90" y="-58"/>
      <point x="78" y="-96"/>
      <point x="30" y="-96" type="curve" smooth="yes"/>
      <point x="13" y="-96"/>
      <point x="-4" y="-91"/>
      <point x="-17" y="-87" type="curve"/>
      <point x="-33" y="-153" type="line"/>
      <point x="-16" y="-159"/>
      <point x="9" y="-165"/>
    </contour>
  </outline>
</glyph>
<glyph name="Fhook" format="1">
  <advance width="566"/>
  <outline>
    <contour>
      <point x="245" y="341" type="line" smooth="yes"/>
      <point x="245" y="84"/>
      <point x="178" y="-12"/>
      <point x="71" y="-12" type="curve" smooth="yes"/>
      <point x="45" y="-12"/>
      <point x="11" y="-7"/>
      <point x="-8" y="3" type="curve"/>
      <point x="13" y="78" type="line"/>
      <point x="27" y="71"/>
      <point x="41" y="67"/>
      <point x="62" y="67" type="curve" smooth="yes"/>
      <point x="116" y="67"/>
      <point x="162" y="127"/>
      <point x="162" y="335" type="curve" smooth="yes"/>
      <point x="162" y="656" type="line"/>
      <point x="540" y="656" type="line"/>
      <point x="540" y="586" type="line"/>
      <point x="245" y="586" type="line"/>
    </contour>
    <contour>
      <point x="72" y="364" type="line"/>
      <point x="495" y="364" type="line"/>
      <point x="495" y="294" type="line"/>
      <point x="72" y="294" type="line"/>
    </contour>
  </outline>
</glyph>
<glyph name="Gammalatin" format="1">
  <advance width="515"/>
  <outline>
    <contour>
      <point x="210" y="239" type="line"/>
      <point x="307" y="239" type="line"/>
      <point x="515" y="656" type="line"/>
      <point x="430" y="656" type="line"/>
      <point x="325" y="434" type="line" smooth="yes"/>
      <point x="303" y="386"/>
      <point x="286" y="350"/>
      <point x="262" y="302" type="curve"/>
      <point x="258" y="302" type="line"/>
      <point x="233" y="350"/>
      <point x="217" y="386"/>
      <point x="194" y="434" type="curve" smooth="yes"/>
      <point x="89" y="656" type="line"/>
      <point x="0" y="656" type="line"/>
    </contour>
    <contour>
      <point x="258" y="-12" type="curve" smooth="yes"/>
      <point x="334" y="-12"/>
      <point x="377" y="32"/>
      <point x="377" y="95" type="curve" smooth="yes"/>
      <point x="377" y="143"/>
      <point x="348" y="186"/>
      <point x="302" y="264" type="curve"/>
      <point x="213" y="264" type="line"/>
      <point x="168" y="186"/>
      <point x="140" y="143"/>
      <point x="140" y="95" type="curve" smooth="yes"/>
      <point x="140" y="32"/>
      <point x="182" y="-12"/>
    </contour>
    <contour>
      <point x="258" y="58" type="curve" smooth="yes"/>
      <point x="228" y="58"/>
      <point x="214" y="76"/>
      <point x="214" y="100" type="curve" smooth="yes"/>
      <point x="214" y="126"/>
      <point x="231" y="163"/>
      <point x="255" y="199" type="curve"/>
      <point x="260" y="199" type="line"/>
      <point x="286" y="163"/>
      <point x="302" y="129"/>
      <point x="302" y="100" type="curve" smooth="yes"/>
      <point x="302" y="76"/>
      <point x="288" y="58"/>
    </contour>
    <contour>
      <point x="257" y="678" type="move" name="aboveUC"/>
    </contour>
    <contour>
      <point x="258" y="-22" type="move" name="belowLC"/>
    </contour>
  </outline>
</glyph>
<glyph name="Glottalstoplatin" format="1">
  <advance width="432"/>
  <outline>
    <contour>
      <point x="153" y="0" type="line"/>
      <point x="236" y="0" type="line"/>
      <point x="236" y="231" type="line"/>
      <point x="353" y="292"/>
      <point x="425" y="358"/>
      <point x="425" y="476" type="curve" smooth="yes"/>
      <point x="425" y="602"/>
      <point x="327" y="668"/>
      <point x="202" y="668" type="curve" smooth="yes"/>
      <point x="95" y="668"/>
      <point x="34" y="620"/>
      <point x="-14" y="571" type="curve"/>
      <point x="29" y="517" type="line"/>
      <point x="69" y="560"/>
      <point x="116" y="600"/>
      <point x="196" y="600" type="curve" smooth="yes"/>
      <point x="290" y="600"/>
      <point x="341" y="551"/>
      <point x="341" y="474" type="curve" smooth="yes"/>
      <point x="341" y="386"/>
      <point x="291" y="330"/>
      <point x="153" y="268" type="curve"/>
    </contour>
  </outline>
</glyph>
<glyph name="Heng" format="1">
  <advance width="652"/>
  <outline>
    <contour>
      <point x="562" y="656" type="line"/>
      <point x="478" y="656" type="line"/>
      <point x="478" y="381" type="line"/>
      <point x="173" y="381" type="line"/>
      <point x="173" y="656" type="line"/>
      <point x="90" y="656" type="line"/>
      <point x="90" y="0" type="line"/>
      <point x="173" y="0" type="line"/>
      <point x="173" y="309" type="line"/>
      <point x="478" y="309" type="line"/>
      <point x="478" y="0" type="line" smooth="yes"/>
      <point x="478" y="-58"/>
      <point x="467" y="-96"/>
      <point x="418" y="-96" type="curve" smooth="yes"/>
      <point x="401" y="-96"/>
      <point x="385" y="-91"/>
      <point x="372" y="-87" type="curve"/>
      <point x="356" y="-153" type="line"/>
      <point x="373" y="-159"/>
      <point x="398" y="-165"/>
      <point x="427" y="-165" type="curve" smooth="yes"/>
      <point x="521" y="-165"/>
      <point x="562" y="-103"/>
      <point x="562" y="-3" type="curve" smooth="yes"/>
    </contour>
    <contour>
      <point x="325" y="678" type="move" name="aboveUC"/>
    </contour>
    <contour>
      <point x="325" y="-22" type="move" name="belowLC"/>
    </contour>
  </outline>
</glyph>
<glyph name="Hhook.sc" format="1">
  <advance width="702"/>
  <outline>
    <contour>
      <point x="100" y="280" type="curve"/>
      <point x="129" y="321" type="line"/>
      <point x="110" y="335"/>
      <point x="100" y="355"/>
      <point x="100" y="385" type="curve" smooth="yes"/>
      <point x="100" y="432"/>
      <point x="134" y="456"/>
      <point x="184" y="456" type="curve" smooth="yes"/>
      <point x="260" y="456" type="line"/>
      <point x="281" y="518" type="line"/>
      <point x="198" y="518" type="line" smooth="yes"/>
      <point x="103" y="518"/>
      <point x="43" y="472"/>
      <point x="43" y="386" type="curve" smooth="yes"/>
      <point x="43" y="337"/>
      <point x="62" y="300"/>
    </contour>
    <component base="H.sc" xOffset="108"/>
    <contour>
      <point x="405" y="563" type="move" name="aboveUC"/>
    </contour>
    <contour>
      <point x="405" y="-22" type="move" name="belowLC"/>
    </contour>
  </outline>
</glyph>
<glyph name="I.a" format="1">
  <advance width="343"/>
  <outline>
    <contour>
      <point x="46" y="0" type="line"/>
      <point x="296" y="0" type="line"/>
      <point x="296" y="71" type="line"/>
      <point x="213" y="71" type="line"/>
      <point x="213" y="586" type="line"/>
      <point x="296" y="586" type="line"/>
      <point x="296" y="656" type="line"/>
      <point x="46" y="656" type="line"/>
      <point x="46" y="586" type="line"/>
      <point x="130" y="586" type="line"/>
      <point x="130" y="71" type="line"/>
      <point x="46" y="71" type="line"/>
    </contour>
    <contour>
      <point x="171" y="676" type="move" name="aboveUC"/>
    </contour>
    <contour>
      <point x="148" y="0" type="move" name="ogonekUC"/>
    </contour>
    <contour>
      <point x="173" y="-20" type="move" name="belowLC"/>
    </contour>
  </outline>
</glyph>
<glyph name="Iota" format="1">
  <advance width="263"/>
  <outline>
    <component base="I"/>
    <contour>
      <point x="131" y="676" type="move" name="aboveUC"/>
    </contour>
  </outline>
</glyph>
<glyph name="Iota.sc" format="1">
  <advance width="263"/>
  <outline>
    <component base="I.sc"/>
    <contour>
      <point x="131" y="561" type="move" name="aboveLC"/>
    </contour>
    <contour>
      <point x="131" y="-20" type="move" name="belowLC"/>
    </contour>
  </outline>
</glyph>
<glyph name="Iotalatin" format="1">
  <advance width="331"/>
  <outline>
    <contour>
      <point x="255" y="-12" type="curve" smooth="yes"/>
      <point x="279" y="-12"/>
      <point x="311" y="-7"/>
      <point x="329" y="3" type="curve"/>
      <point x="309" y="78" type="line"/>
      <point x="297" y="71"/>
      <point x="282" y="67"/>
      <point x="264" y="67" type="curve" smooth="yes"/>
      <point x="209" y="67"/>
      <point x="172" y="115"/>
      <point x="172" y="297" type="curve" smooth="yes"/>
      <point x="172" y="656" type="line"/>
      <point x="89" y="656" type="line"/>
      <point x="89" y="302" type="line" smooth="yes"/>
      <point x="89" y="76"/>
      <point x="144" y="-12"/>
    </contour>
  </outline>
</glyph>
<glyph name="Istroke" format="1">
  <advance width="299"/>
  <outline>
    <contour>
      <point x="30" y="313" type="line"/>
      <point x="268" y="313" type="line"/>
      <point x="268" y="360" type="line"/>
      <point x="109" y="360" type="line"/>
      <point x="30" y="357" type="line"/>
    </contour>
    <component base="I" xOffset="18"/>
  </outline>
</glyph>
<glyph name="Jcrossedtail" format="1">
  <advance width="456"/>
  <outline>
    <contour>
      <point x="380" y="-18" type="curve"/>
      <point x="439" y="21" type="line"/>
      <point x="368" y="151"/>
      <point x="283" y="240"/>
      <point x="179" y="240" type="curve" smooth="yes"/>
      <point x="87" y="240"/>
      <point x="34" y="188"/>
      <point x="34" y="120" type="curve" smooth="yes"/>
      <point x="34" y="50"/>
      <point x="90" y="-12"/>
      <point x="183" y="-12" type="curve" smooth="yes"/>
      <point x="307" y="-12"/>
      <point x="368" y="79"/>
      <point x="368" y="207" type="curve" smooth="yes"/>
      <point x="368" y="656" type="line"/>
      <point x="284" y="656" type="line"/>
      <point x="284" y="209" type="line" smooth="yes"/>
      <point x="284" y="138"/>
      <point x="264" y="61"/>
      <point x="189" y="61" type="curve" smooth="yes"/>
      <point x="144" y="61"/>
      <point x="115" y="87"/>
      <point x="115" y="120" type="curve" smooth="yes"/>
      <point x="115" y="149"/>
      <point x="138" y="173"/>
      <point x="184" y="173" type="curve" smooth="yes"/>
      <point x="256" y="173"/>
      <point x="320" y="94"/>
    </contour>
    <contour>
      <point x="323" y="678" type="move" name="aboveUC"/>
    </contour>
    <contour>
      <point x="228" y="-22" type="move" name="belowLC"/>
    </contour>
  </outline>
</glyph>
<glyph name="Khook" format="1">
  <advance width="579"/>
  <outline>
    <contour>
      <point x="478" y="572" type="line" smooth="yes"/>
      <point x="491" y="588"/>
      <point x="504" y="593"/>
      <point x="517" y="593" type="curve" smooth="yes"/>
      <point x="542" y="593"/>
      <point x="557" y="577"/>
      <point x="569" y="561" type="curve"/>
      <point x="619" y="604" type="line"/>
      <point x="597" y="632"/>
      <point x="560" y="668"/>
      <point x="509" y="668" type="curve" smooth="yes"/>
      <point x="478" y="668"/>
      <point x="452" y="660"/>
      <point x="413" y="609" type="curve" smooth="yes"/>
      <point x="176" y="327" type="line"/>
      <point x="173" y="327" type="line"/>
      <point x="173" y="656" type="line"/>
      <point x="90" y="656" type="line"/>
      <point x="90" y="0" type="line"/>
      <point x="173" y="0" type="line"/>
      <point x="173" y="208" type="line"/>
      <point x="286" y="341" type="line"/>
      <point x="482" y="0" type="line"/>
      <point x="575" y="0" type="line"/>
      <point x="338" y="406" type="line"/>
    </contour>
  </outline>
</glyph>
<glyph name="Kturned" format="1">
  <advance width="579"/>
  <outline>
    <component base="K" xScale="-1.0" xOffset="579"/>
    <contour>
      <point x="244" y="423" type="move" name="aboveUC"/>
    </contour>
    <contour>
      <point x="261" y="233" type="move" name="belowLC"/>
    </contour>
  </outline>
</glyph>
<glyph name="L" format="1">
  <advance width="486"/>
  <outline>
    <contour>
      <point x="90" y="0" type="line"/>
      <point x="460" y="0" type="line"/>
      <point x="460" y="71" type="line"/>
      <point x="173" y="71" type="line"/>
      <point x="173" y="656" type="line"/>
      <point x="90" y="656" type="line"/>
    </contour>
    <contour>
      <point x="133" y="676" type="move" name="aboveUC"/>
    </contour>
    <contour>
      <point x="203" y="129" type="move" name="center"/>
    </contour>
    <contour>
      <point x="252" y="0" type="move" name="baseLC"/>
    </contour>
    <contour>
      <point x="289" y="-20" type="move" name="belowLC"/>
    </contour>
  </outline>
</glyph>
<glyph name="L.sc" format="1">
  <advance width="437"/>
  <outline>
    <contour>
      <point x="90" y="0" type="line"/>
      <point x="410" y="0" type="line"/>
      <point x="410" y="69" type="line"/>
      <point x="173" y="69" type="line"/>
      <point x="173" y="518" type="line"/>
      <point x="90" y="518" type="line"/>
    </contour>
    <contour>
      <point x="137" y="561" type="move" name="aboveUC"/>
    </contour>
    <contour>
      <point x="135" y="268" type="move" name="center"/>
    </contour>
    <contour>
      <point x="260" y="-20" type="move" name="belowLC"/>
    </contour>
  </outline>
</glyph>
<glyph name="Lbelt" format="1">
  <advance width="527"/>
  <outline>
    <contour>
      <point x="121" y="275" type="curve" smooth="yes"/>
      <point x="296" y="275" type="line"/>
      <point x="296" y="322" type="line"/>
      <point x="111" y="322" type="line" smooth="yes"/>
      <point x="67" y="322"/>
      <point x="47" y="340"/>
      <point x="47" y="361" type="curve" smooth="yes"/>
      <point x="47" y="380"/>
      <point x="57" y="395"/>
      <point x="81" y="395" type="curve" smooth="yes"/>
      <point x="120" y="395"/>
      <point x="131" y="357"/>
      <point x="131" y="328" type="curve"/>
      <point x="165" y="316" type="line"/>
      <point x="165" y="353"/>
      <point x="156" y="441"/>
      <point x="77" y="441" type="curve" smooth="yes"/>
      <point x="28" y="441"/>
      <point x="-6" y="407"/>
      <point x="-6" y="362" type="curve" smooth="yes"/>
      <point x="-6" y="312"/>
      <point x="34" y="275"/>
    </contour>
    <contour>
      <point x="131" y="0" type="line"/>
      <point x="501" y="0" type="line"/>
      <point x="501" y="71" type="line"/>
      <point x="215" y="71" type="line"/>
      <point x="215" y="656" type="line"/>
      <point x="131" y="656" type="line"/>
    </contour>
    <contour>
      <point x="174" y="678" type="move" name="aboveUC"/>
    </contour>
    <contour>
      <point x="330" y="-22" type="move" name="belowLC"/>
    </contour>
  </outline>
</glyph>
<glyph name="Nhookleft.alt" format="1">
  <advance width="647"/>
  <outline>
    <contour>
      <point x="39" y="-165" type="curve" smooth="yes"/>
      <point x="133" y="-165"/>
      <point x="169" y="-103"/>
      <point x="169" y="-3" type="curve" smooth="yes"/>
      <point x="169" y="343" type="line" smooth="yes"/>
      <point x="169" y="412"/>
      <point x="163" y="482"/>
      <point x="158" y="548" type="curve"/>
      <point x="162" y="548" type="line"/>
      <point x="233" y="413" type="line"/>
      <point x="471" y="0" type="line"/>
      <point x="557" y="0" type="line"/>
      <point x="557" y="656" type="line"/>
      <point x="478" y="656" type="line"/>
      <point x="478" y="317" type="line" smooth="yes"/>
      <point x="478" y="248"/>
      <point x="484" y="174"/>
      <point x="488" y="108" type="curve"/>
      <point x="484" y="108" type="line"/>
      <point x="413" y="244" type="line"/>
      <point x="176" y="656" type="line"/>
      <point x="90" y="656" type="line"/>
      <point x="90" y="0" type="line" smooth="yes"/>
      <point x="90" y="-58"/>
      <point x="78" y="-96"/>
      <point x="30" y="-96" type="curve" smooth="yes"/>
      <point x="13" y="-96"/>
      <point x="-4" y="-91"/>
      <point x="-17" y="-87" type="curve"/>
      <point x="-33" y="-153" type="line"/>
      <point x="-16" y="-159"/>
      <point x="9" y="-165"/>
    </contour>
    <contour>
      <point x="327" y="678" type="move" name="aboveUC"/>
    </contour>
  </outline>
</glyph>
<glyph name="Nhookleft" format="1">
  <advance width="707"/>
  <outline>
    <contour>
      <point x="71" y="-12" type="curve" smooth="yes"/>
      <point x="179" y="-12"/>
      <point x="245" y="85"/>
      <point x="245" y="338" type="curve" smooth="yes"/>
      <point x="245" y="497" type="line"/>
      <point x="285" y="554"/>
      <point x="355" y="595"/>
      <point x="407" y="595" type="curve" smooth="yes"/>
      <point x="507" y="595"/>
      <point x="562" y="529"/>
      <point x="562" y="345" type="curve" smooth="yes"/>
      <point x="562" y="0" type="line"/>
      <point x="647" y="0" type="line"/>
      <point x="647" y="362" type="line" smooth="yes"/>
      <point x="647" y="580"/>
      <point x="561" y="668"/>
      <point x="428" y="668" type="curve" smooth="yes"/>
      <point x="358" y="668"/>
      <point x="290" y="628"/>
      <point x="243" y="575" type="curve"/>
      <point x="243" y="656" type="line"/>
      <point x="162" y="656" type="line"/>
      <point x="162" y="334" type="line" smooth="yes"/>
      <point x="162" y="127"/>
      <point x="116" y="67"/>
      <point x="62" y="67" type="curve" smooth="yes"/>
      <point x="41" y="67"/>
      <point x="27" y="71"/>
      <point x="13" y="78" type="curve"/>
      <point x="-8" y="3" type="line"/>
      <point x="11" y="-7"/>
      <point x="45" y="-12"/>
    </contour>
    <contour>
      <point x="420" y="678" type="move" name="aboveUC"/>
    </contour>
  </outline>
</glyph>
<glyph name="Nlegrightlong" format="1">
  <advance width="648"/>
  <outline>
    <contour>
      <point x="486" y="-188" type="line"/>
      <point x="570" y="-188" type="line"/>
      <point x="570" y="335" type="line" smooth="yes"/>
      <point x="570" y="580"/>
      <point x="486" y="668"/>
      <point x="356" y="668" type="curve" smooth="yes"/>
      <point x="287" y="668"/>
      <point x="218" y="628"/>
      <point x="171" y="575" type="curve"/>
      <point x="171" y="656" type="line"/>
      <point x="90" y="656" type="line"/>
      <point x="90" y="0" type="line"/>
      <point x="173" y="0" type="line"/>
      <point x="173" y="497" type="line"/>
      <point x="213" y="554"/>
      <point x="283" y="595"/>
      <point x="335" y="595" type="curve" smooth="yes"/>
      <point x="432" y="595"/>
      <point x="486" y="532"/>
      <point x="486" y="335" type="curve" smooth="yes"/>
    </contour>
    <contour>
      <point x="348" y="678" type="move" name="aboveUC"/>
    </contour>
  </outline>
</glyph>
<glyph name="Ohorn.sc" format="1">
  <advance width="589"/>
  <outline>
    <component base="O.sc"/>
    <component base="horncmb" xOffset="409" yOffset="32"/>
    <contour>
      <point x="295" y="561" type="move" name="aboveUC"/>
    </contour>
    <contour>
      <point x="295" y="-20" type="move" name="belowLC"/>
    </contour>
  </outline>
</glyph>
<glyph name="Omegalatin" format="1">
  <advance width="849"/>
  <outline>
    <contour>
      <point x="264" y="-12" type="curve" smooth="yes"/>
      <point x="331" y="-12"/>
      <point x="393" y="23"/>
      <point x="422" y="105" type="curve"/>
      <point x="428" y="105" type="line"/>
      <point x="457" y="23"/>
      <point x="520" y="-12"/>
      <point x="587" y="-12" type="curve" smooth="yes"/>
      <point x="709" y="-12"/>
      <point x="790" y="95"/>
      <point x="790" y="310" type="curve" smooth="yes"/>
      <point x="790" y="460"/>
      <point x="746" y="561"/>
      <point x="680" y="663" type="curve"/>
      <point x="606" y="625" type="line"/>
      <point x="675" y="521"/>
      <point x="704" y="445"/>
      <point x="704" y="304" type="curve" smooth="yes"/>
      <point x="704" y="139"/>
      <point x="650" y="61"/>
      <point x="578" y="61" type="curve" smooth="yes"/>
      <point x="516" y="61"/>
      <point x="463" y="101"/>
      <point x="463" y="233" type="curve" smooth="yes"/>
      <point x="464" y="412" type="line"/>
      <point x="388" y="412" type="line"/>
      <point x="388" y="235" type="line" smooth="yes"/>
      <point x="388" y="107"/>
      <point x="334" y="62"/>
      <point x="272" y="62" type="curve" smooth="yes"/>
      <point x="200" y="62"/>
      <point x="145" y="143"/>
      <point x="145" y="287" type="curve" smooth="yes"/>
      <point x="145" y="434"/>
      <point x="178" y="521"/>
      <point x="244" y="621" type="curve"/>
      <point x="171" y="663" type="line"/>
      <point x="108" y="563"/>
      <point x="59" y="444"/>
      <point x="59" y="307" type="curve" smooth="yes"/>
      <point x="59" y="94"/>
      <point x="148" y="-12"/>
    </contour>
    <contour>
      <point x="424" y="678" type="move" name="aboveUC"/>
    </contour>
    <contour>
      <point x="424" y="-22" type="move" name="belowLC"/>
    </contour>
  </outline>
</glyph>
<glyph name="Oopen" format="1">
  <advance width="571"/>
  <outline>
    <contour>
      <point x="243" y="-12" type="curve" smooth="yes"/>
      <point x="393" y="-12"/>
      <point x="519" y="105"/>
      <point x="519" y="328" type="curve" smooth="yes"/>
      <point x="519" y="550"/>
      <point x="398" y="668"/>
      <point x="243" y="668" type="curve" smooth="yes"/>
      <point x="162" y="668"/>
      <point x="89" y="630"/>
      <point x="47" y="587" type="curve"/>
      <point x="93" y="533" type="line"/>
      <point x="131" y="571"/>
      <point x="182" y="595"/>
      <point x="240" y="595" type="curve" smooth="yes"/>
      <point x="353" y="595"/>
      <point x="433" y="502"/>
      <point x="433" y="334" type="curve" smooth="yes"/>
      <point x="433" y="153"/>
      <point x="349" y="61"/>
      <point x="241" y="61" type="curve" smooth="yes"/>
      <point x="173" y="61"/>
      <point x="122" y="89"/>
      <point x="78" y="135" type="curve"/>
      <point x="32" y="83" type="line"/>
      <point x="87" y="23"/>
      <point x="154" y="-12"/>
    </contour>
    <contour>
      <point x="259" y="678" type="move" name="aboveUC"/>
    </contour>
    <contour>
      <point x="245" y="0" type="move" name="baseLC"/>
    </contour>
    <contour>
      <point x="245" y="-22" type="move" name="belowLC"/>
    </contour>
  </outline>
</glyph>
<glyph name="Oopen.sc" format="1">
  <advance width="503"/>
  <outline>
    <contour>
      <point x="205" y="-12" type="curve" smooth="yes"/>
      <point x="346" y="-12"/>
      <point x="452" y="85"/>
      <point x="452" y="258" type="curve" smooth="yes"/>
      <point x="452" y="427"/>
      <point x="342" y="530"/>
      <point x="198" y="530" type="curve" smooth="yes"/>
      <point x="132" y="530"/>
      <point x="78" y="499"/>
      <point x="43" y="464" type="curve"/>
      <point x="90" y="413" type="line"/>
      <point x="119" y="442"/>
      <point x="153" y="460"/>
      <point x="198" y="460" type="curve" smooth="yes"/>
      <point x="299" y="460"/>
      <point x="366" y="384"/>
      <point x="366" y="260" type="curve" smooth="yes"/>
      <point x="366" y="134"/>
      <point x="303" y="58"/>
      <point x="202" y="58" type="curve" smooth="yes"/>
      <point x="150" y="58"/>
      <point x="111" y="78"/>
      <point x="78" y="113" type="curve"/>
      <point x="32" y="63" type="line"/>
      <point x="78" y="14"/>
      <point x="133" y="-12"/>
    </contour>
    <contour>
      <point x="215" y="575" type="move" name="aboveUC"/>
    </contour>
    <contour>
      <point x="216" y="0" type="move" name="baseLC"/>
    </contour>
    <contour>
      <point x="216" y="-22" type="move" name="belowLC"/>
    </contour>
  </outline>
</glyph>
<glyph name="Oopen.sups" format="1">
  <advance width="379"/>
  <outline>
    <contour>
      <point x="154" y="387" type="curve" smooth="yes"/>
      <point x="263" y="387"/>
      <point x="346" y="468"/>
      <point x="346" y="609" type="curve" smooth="yes"/>
      <point x="346" y="748"/>
      <point x="261" y="835"/>
      <point x="149" y="835" type="curve" smooth="yes"/>
      <point x="96" y="835"/>
      <point x="54" y="810"/>
      <point x="28" y="781" type="curve"/>
      <point x="63" y="742" type="line"/>
      <point x="86" y="765"/>
      <point x="113" y="780"/>
      <point x="148" y="780" type="curve" smooth="yes"/>
      <point x="228" y="780"/>
      <point x="282" y="714"/>
      <point x="282" y="611" type="curve" smooth="yes"/>
      <point x="282" y="506"/>
      <point x="231" y="441"/>
      <point x="151" y="441" type="curve" smooth="yes"/>
      <point x="110" y="441"/>
      <point x="80" y="458"/>
      <point x="53" y="487" type="curve"/>
      <point x="19" y="449" type="line"/>
      <point x="53" y="409"/>
      <point x="97" y="387"/>
    </contour>
  </outline>
</glyph>
<glyph name="Oslash" format="1">
  <advance width="664"/>
  <outline>
    <contour>
      <point x="96" y="-30" type="line"/>
      <point x="619" y="651" type="line"/>
      <point x="573" y="686" type="line"/>
      <point x="50" y="6" type="line"/>
    </contour>
    <component base="O" xOffset="3"/>
    <contour>
      <point x="335" y="676" type="move" name="aboveUC"/>
    </contour>
    <contour>
      <point x="332" y="0" type="move" name="baseLC"/>
    </contour>
  </outline>
</glyph>
<glyph name="Phook" format="1">
  <advance width="704"/>
  <outline>
    <contour>
      <point x="415" y="656" type="line"/>
      <point x="228" y="656" type="line" smooth="yes"/>
      <point x="112" y="656"/>
      <point x="40" y="603"/>
      <point x="40" y="501" type="curve" smooth="yes"/>
      <point x="40" y="446"/>
      <point x="61" y="403"/>
      <point x="102" y="379" type="curve"/>
      <point x="134" y="424" type="line"/>
      <point x="113" y="441"/>
      <point x="101" y="464"/>
      <point x="101" y="497" type="curve" smooth="yes"/>
      <point x="101" y="561"/>
      <point x="145" y="590"/>
      <point x="212" y="590" type="curve" smooth="yes"/>
      <point x="373" y="590" type="line"/>
    </contour>
    <component base="P" xOffset="138"/>
    <contour>
      <point x="441" y="678" type="move" name="aboveUC"/>
    </contour>
    <contour>
      <point x="275" y="-22" type="move" name="belowLC"/>
    </contour>
  </outline>
</glyph>
<glyph name="Rho" format="1">
  <advance width="566"/>
  <outline>
    <component base="P"/>
    <contour>
      <point x="303" y="676" type="move" name="aboveUC"/>
    </contour>
  </outline>
</glyph>
<glyph name="Rstroke" format="1">
  <advance width="588"/>
  <outline>
    <contour>
      <point x="30" y="298" type="line"/>
      <point x="342" y="298" type="line"/>
      <point x="342" y="345" type="line"/>
      <point x="108" y="345" type="line"/>
      <point x="30" y="342" type="line"/>
    </contour>
    <component base="R" xOffset="19"/>
  </outline>
</glyph>
<glyph name="Rtail.alt" format="1">
  <advance width="569"/>
  <outline>
    <contour>
      <point x="90" y="10" type="line"/>
      <point x="173" y="0" type="line"/>
      <point x="173" y="277" type="line"/>
      <point x="295" y="277" type="line" smooth="yes"/>
      <point x="429" y="277"/>
      <point x="525" y="341"/>
      <point x="525" y="472" type="curve" smooth="yes"/>
      <point x="525" y="608"/>
      <point x="429" y="656"/>
      <point x="295" y="656" type="curve" smooth="yes"/>
      <point x="90" y="656" type="line"/>
    </contour>
    <contour>
      <point x="173" y="345" type="line"/>
      <point x="173" y="589" type="line"/>
      <point x="283" y="589" type="line" smooth="yes"/>
      <point x="385" y="589"/>
      <point x="442" y="558"/>
      <point x="442" y="472" type="curve" smooth="yes"/>
      <point x="442" y="387"/>
      <point x="385" y="345"/>
      <point x="283" y="345" type="curve" smooth="yes"/>
    </contour>
    <contour>
      <point x="450" y="0" type="line"/>
      <point x="544" y="0" type="line"/>
      <point x="344" y="344" type="line"/>
      <point x="279" y="300" type="line"/>
    </contour>
    <contour>
      <point x="173" y="623" type="line"/>
      <point x="90" y="656" type="line"/>
      <point x="90" y="-3" type="line" smooth="yes"/>
      <point x="90" y="-103"/>
      <point x="130" y="-165"/>
      <point x="224" y="-165" type="curve" smooth="yes"/>
      <point x="254" y="-165"/>
      <point x="279" y="-159"/>
      <point x="296" y="-153" type="curve"/>
      <point x="279" y="-87" type="line"/>
      <point x="267" y="-91"/>
      <point x="250" y="-96"/>
      <point x="233" y="-96" type="curve" smooth="yes"/>
      <point x="185" y="-96"/>
      <point x="173" y="-58"/>
      <point x="173" y="0" type="curve" smooth="yes"/>
    </contour>
  </outline>
</glyph>
<glyph name="Rtail" format="1">
  <advance width="418"/>
  <outline>
    <contour>
      <point x="224" y="-12" type="curve" smooth="yes"/>
      <point x="254" y="-12"/>
      <point x="279" y="-6"/>
      <point x="296" y="1" type="curve"/>
      <point x="279" y="66" type="line"/>
      <point x="267" y="62"/>
      <point x="250" y="58"/>
      <point x="233" y="58" type="curve" smooth="yes"/>
      <point x="185" y="58"/>
      <point x="173" y="95"/>
      <point x="173" y="153" type="curve" smooth="yes"/>
      <point x="173" y="449" type="line"/>
      <point x="217" y="554"/>
      <point x="281" y="599"/>
      <point x="335" y="599" type="curve" smooth="yes"/>
      <point x="360" y="599"/>
      <point x="375" y="595"/>
      <point x="397" y="588" type="curve"/>
      <point x="415" y="656" type="line"/>
      <point x="395" y="666"/>
      <point x="376" y="669"/>
      <point x="348" y="669" type="curve" smooth="yes"/>
      <point x="276" y="669"/>
      <point x="212" y="618"/>
      <point x="168" y="539" type="curve"/>
      <point x="164" y="539" type="line"/>
      <point x="156" y="656" type="line"/>
      <point x="90" y="656" type="line"/>
      <point x="90" y="150" type="line" smooth="yes"/>
      <point x="90" y="50"/>
      <point x="130" y="-12"/>
    </contour>
  </outline>
</glyph>
<glyph name="Saltillo" format="1">
  <advance width="289"/>
  <outline>
    <contour>
      <point x="116" y="198" type="line"/>
      <point x="173" y="198" type="line"/>
      <point x="184" y="563" type="line"/>
      <point x="186" y="656" type="line"/>
      <point x="103" y="656" type="line"/>
      <point x="105" y="563" type="line"/>
    </contour>
  </outline>
</glyph>
<glyph name="Saltillo.sc" format="1">
  <advance width="289"/>
  <outline>
    <contour>
      <point x="116" y="198" type="line"/>
      <point x="173" y="198" type="line"/>
      <point x="184" y="438" type="line"/>
      <point x="186" y="518" type="line"/>
      <point x="103" y="518" type="line"/>
      <point x="105" y="438" type="line"/>
    </contour>
  </outline>
</glyph>
<glyph name="Schwa" format="1">
  <advance width="658"/>
  <outline>
    <contour>
      <point x="327" y="-12" type="curve" smooth="yes"/>
      <point x="497" y="-12"/>
      <point x="606" y="112"/>
      <point x="606" y="330" type="curve" smooth="yes"/>
      <point x="606" y="548"/>
      <point x="502" y="668"/>
      <point x="331" y="668" type="curve" smooth="yes"/>
      <point x="242" y="668"/>
      <point x="171" y="636"/>
      <point x="124" y="591" type="curve"/>
      <point x="165" y="534" type="line"/>
      <point x="204" y="572"/>
      <point x="259" y="599"/>
      <point x="325" y="599" type="curve" smooth="yes"/>
      <point x="455" y="599"/>
      <point x="524" y="504"/>
      <point x="524" y="330" type="curve" smooth="yes"/>
      <point x="524" y="153"/>
      <point x="449" y="57"/>
      <point x="327" y="57" type="curve" smooth="yes"/>
      <point x="221" y="57"/>
      <point x="149" y="141"/>
      <point x="143" y="286" type="curve"/>
      <point x="542" y="286" type="line"/>
      <point x="542" y="350" type="line"/>
      <point x="60" y="350" type="line"/>
      <point x="59" y="341"/>
      <point x="58" y="332"/>
      <point x="58" y="325" type="curve" smooth="yes"/>
      <point x="58" y="119"/>
      <point x="158" y="-12"/>
    </contour>
    <contour>
      <point x="342" y="676" type="move" name="aboveUC"/>
    </contour>
    <contour>
      <point x="329" y="0" type="move" name="ogonekUC"/>
    </contour>
    <contour>
      <point x="329" y="0" type="move" name="baseLC"/>
    </contour>
    <contour>
      <point x="346" y="-20" type="move" name="belowLC"/>
    </contour>
  </outline>
</glyph>
<glyph name="Tau.sc" format="1">
  <advance width="467"/>
  <outline>
    <component base="T.sc"/>
    <contour>
      <point x="234" y="561" type="move" name="aboveLC"/>
    </contour>
    <contour>
      <point x="229" y="0" type="move" name="baseLC"/>
    </contour>
    <contour>
      <point x="234" y="-20" type="move" name="belowLC"/>
    </contour>
  </outline>
</glyph>
<glyph name="Tbar" format="1">
  <advance width="536"/>
  <outline>
    <contour>
      <point x="226" y="0" type="line"/>
      <point x="310" y="0" type="line"/>
      <point x="310" y="586" type="line"/>
      <point x="508" y="586" type="line"/>
      <point x="508" y="656" type="line"/>
      <point x="28" y="656" type="line"/>
      <point x="28" y="586" type="line"/>
      <point x="226" y="586" type="line"/>
    </contour>
    <contour>
      <point x="103" y="313" type="line"/>
      <point x="433" y="313" type="line"/>
      <point x="433" y="360" type="line"/>
      <point x="191" y="360" type="line"/>
      <point x="103" y="357" type="line"/>
    </contour>
    <contour>
      <point x="268" y="676" type="move" name="aboveUC"/>
    </contour>
    <contour>
      <point x="268" y="-20" type="move" name="belowLC"/>
    </contour>
  </outline>
</glyph>
<glyph name="Thook" format="1">
  <advance width="593"/>
  <outline>
    <contour>
      <point x="283" y="0" type="line"/>
      <point x="366" y="0" type="line"/>
      <point x="366" y="586" type="line"/>
      <point x="565" y="586" type="line"/>
      <point x="565" y="656" type="line"/>
      <point x="228" y="656" type="line" smooth="yes"/>
      <point x="112" y="656"/>
      <point x="40" y="603"/>
      <point x="40" y="501" type="curve" smooth="yes"/>
      <point x="40" y="446"/>
      <point x="61" y="403"/>
      <point x="102" y="379" type="curve"/>
      <point x="134" y="424" type="line"/>
      <point x="113" y="440"/>
      <point x="101" y="463"/>
      <point x="101" y="494" type="curve" smooth="yes"/>
      <point x="101" y="557"/>
      <point x="145" y="586"/>
      <point x="212" y="586" type="curve" smooth="yes"/>
      <point x="283" y="586" type="line"/>
    </contour>
  </outline>
</glyph>
<glyph name="Thook.sc" format="1">
  <advance width="515"/>
  <outline>
    <contour>
      <point x="100" y="280" type="curve"/>
      <point x="132" y="321" type="line"/>
      <point x="113" y="334"/>
      <point x="103" y="354"/>
      <point x="103" y="382" type="curve" smooth="yes"/>
      <point x="103" y="427"/>
      <point x="135" y="449"/>
      <point x="193" y="449" type="curve" smooth="yes"/>
      <point x="316" y="449" type="line"/>
      <point x="341" y="518" type="line"/>
      <point x="198" y="518" type="line" smooth="yes"/>
      <point x="103" y="518"/>
      <point x="43" y="472"/>
      <point x="43" y="386" type="curve" smooth="yes"/>
      <point x="43" y="337"/>
      <point x="62" y="300"/>
    </contour>
    <contour>
      <point x="239" y="0" type="line"/>
      <point x="323" y="0" type="line"/>
      <point x="323" y="449" type="line"/>
      <point x="487" y="449" type="line"/>
      <point x="487" y="518" type="line"/>
      <point x="198" y="518" type="line"/>
      <point x="193" y="449" type="line"/>
      <point x="239" y="449" type="line"/>
    </contour>
    <contour>
      <point x="281" y="563" type="move" name="aboveUC"/>
    </contour>
    <contour>
      <point x="276" y="0" type="move" name="baseLC"/>
    </contour>
    <contour>
      <point x="281" y="-22" type="move" name="belowLC"/>
    </contour>
  </outline>
</glyph>
<glyph name="Tretroflex" format="1">
  <advance width="536"/>
  <outline>
    <contour>
      <point x="361" y="-12" type="curve" smooth="yes"/>
      <point x="391" y="-12"/>
      <point x="416" y="-6"/>
      <point x="433" y="1" type="curve"/>
      <point x="416" y="66" type="line"/>
      <point x="404" y="62"/>
      <point x="387" y="58"/>
      <point x="370" y="58" type="curve" smooth="yes"/>
      <point x="321" y="58"/>
      <point x="310" y="95"/>
      <point x="310" y="153" type="curve" smooth="yes"/>
      <point x="310" y="586" type="line"/>
      <point x="508" y="586" type="line"/>
      <point x="508" y="656" type="line"/>
      <point x="28" y="656" type="line"/>
      <point x="28" y="586" type="line"/>
      <point x="226" y="586" type="line"/>
      <point x="227" y="150" type="line" smooth="yes"/>
      <point x="227" y="50"/>
      <point x="267" y="-12"/>
    </contour>
  </outline>
</glyph>
<glyph name="Tturned" format="1">
  <advance width="536"/>
  <outline>
    <component base="T" xScale="-1.0" yScale="-1.0" xOffset="536" yOffset="656"/>
    <contour>
      <point x="267" y="678" type="move" name="aboveUC"/>
    </contour>
    <contour>
      <point x="268" y="0" type="move" name="baseLC"/>
    </contour>
    <contour>
      <point x="268" y="-22" type="move" name="belowLC"/>
    </contour>
  </outline>
</glyph>
<glyph name="Ubar" format="1">
  <advance width="687"/>
  <outline>
    <contour>
      <point x="32" y="329" type="line"/>
      <point x="655" y="329" type="line"/>
      <point x="655" y="376" type="line"/>
      <point x="113" y="376" type="line"/>
      <point x="32" y="371" type="line"/>
    </contour>
    <component base="U" xOffset="23"/>
  </outline>
</glyph>
<glyph name="Upsilonlatin" format="1">
  <advance width="678"/>
  <outline>
    <contour>
      <point x="45" y="656" type="line"/>
      <point x="45" y="588" type="line"/>
      <point x="176" y="588" type="line"/>
      <point x="176" y="584" type="line"/>
      <point x="119" y="529"/>
      <point x="59" y="437"/>
      <point x="59" y="305" type="curve" smooth="yes"/>
      <point x="59" y="121"/>
      <point x="169" y="-12"/>
      <point x="339" y="-12" type="curve" smooth="yes"/>
      <point x="509" y="-12"/>
      <point x="620" y="121"/>
      <point x="620" y="305" type="curve" smooth="yes"/>
      <point x="620" y="437"/>
      <point x="559" y="529"/>
      <point x="502" y="584" type="curve"/>
      <point x="502" y="588" type="line"/>
      <point x="633" y="588" type="line"/>
      <point x="633" y="656" type="line"/>
      <point x="400" y="656" type="line"/>
      <point x="400" y="596" type="line"/>
      <point x="475" y="537"/>
      <point x="534" y="448"/>
      <point x="534" y="311" type="curve" smooth="yes"/>
      <point x="534" y="168"/>
      <point x="461" y="61"/>
      <point x="339" y="61" type="curve" smooth="yes"/>
      <point x="217" y="61"/>
      <point x="145" y="168"/>
      <point x="145" y="311" type="curve" smooth="yes"/>
      <point x="145" y="448"/>
      <point x="203" y="537"/>
      <point x="278" y="596" type="curve"/>
      <point x="278" y="656" type="line"/>
    </contour>
  </outline>
</glyph>
<glyph name="Upsilonlatin.sc" format="1">
  <advance width="592"/>
  <outline>
    <contour>
      <point x="44" y="518" type="line"/>
      <point x="44" y="452" type="line"/>
      <point x="151" y="452" type="line"/>
      <point x="151" y="449" type="line"/>
      <point x="105" y="408"/>
      <point x="55" y="338"/>
      <point x="55" y="240" type="curve" smooth="yes"/>
      <point x="55" y="96"/>
      <point x="151" y="-12"/>
      <point x="296" y="-12" type="curve" smooth="yes"/>
      <point x="442" y="-12"/>
      <point x="538" y="96"/>
      <point x="538" y="240" type="curve" smooth="yes"/>
      <point x="538" y="338"/>
      <point x="488" y="408"/>
      <point x="442" y="449" type="curve"/>
      <point x="442" y="452" type="line"/>
      <point x="549" y="452" type="line"/>
      <point x="549" y="518" type="line"/>
      <point x="345" y="518" type="line"/>
      <point x="345" y="459" type="line"/>
      <point x="408" y="412"/>
      <point x="454" y="346"/>
      <point x="454" y="246" type="curve" smooth="yes"/>
      <point x="454" y="138"/>
      <point x="395" y="57"/>
      <point x="296" y="57" type="curve" smooth="yes"/>
      <point x="198" y="57"/>
      <point x="139" y="138"/>
      <point x="139" y="246" type="curve" smooth="yes"/>
      <point x="139" y="346"/>
      <point x="185" y="412"/>
      <point x="247" y="459" type="curve"/>
      <point x="247" y="518" type="line"/>
    </contour>
  </outline>
</glyph>
<glyph name="Vhook" format="1">
  <advance width="644"/>
  <outline>
    <contour>
      <point x="321" y="-12" type="curve" smooth="yes"/>
      <point x="499" y="-12"/>
      <point x="592" y="156"/>
      <point x="592" y="386" type="curve" smooth="yes"/>
      <point x="592" y="579"/>
      <point x="520" y="668"/>
      <point x="409" y="668" type="curve" smooth="yes"/>
      <point x="381" y="668"/>
      <point x="360" y="665"/>
      <point x="338" y="657" type="curve"/>
      <point x="355" y="586" type="line"/>
      <point x="369" y="592"/>
      <point x="382" y="595"/>
      <point x="396" y="595" type="curve" smooth="yes"/>
      <point x="472" y="595"/>
      <point x="505" y="518"/>
      <point x="505" y="370" type="curve" smooth="yes"/>
      <point x="505" y="189"/>
      <point x="444" y="61"/>
      <point x="325" y="61" type="curve" smooth="yes"/>
      <point x="236" y="61"/>
      <point x="169" y="122"/>
      <point x="169" y="278" type="curve" smooth="yes"/>
      <point x="169" y="656" type="line"/>
      <point x="90" y="656" type="line"/>
      <point x="90" y="274" type="line" smooth="yes"/>
      <point x="90" y="75"/>
      <point x="188" y="-12"/>
    </contour>
  </outline>
</glyph>
<glyph name="Whook" format="1">
  <advance width="860"/>
  <outline>
    <contour>
      <point x="162" y="0" type="line"/>
      <point x="261" y="0" type="line"/>
      <point x="358" y="395" type="line"/>
      <point x="369" y="446"/>
      <point x="381" y="493"/>
      <point x="391" y="544" type="curve"/>
      <point x="395" y="544" type="line"/>
      <point x="405" y="493"/>
      <point x="415" y="446"/>
      <point x="427" y="395" type="curve"/>
      <point x="526" y="0" type="line"/>
      <point x="626" y="0" type="line"/>
      <point x="736" y="521" type="line" smooth="yes"/>
      <point x="746" y="567"/>
      <point x="763" y="593"/>
      <point x="793" y="593" type="curve" smooth="yes"/>
      <point x="817" y="593"/>
      <point x="832" y="577"/>
      <point x="843" y="561" type="curve"/>
      <point x="893" y="604" type="line"/>
      <point x="871" y="632"/>
      <point x="833" y="668"/>
      <point x="783" y="668" type="curve" smooth="yes"/>
      <point x="730" y="668"/>
      <point x="681" y="635"/>
      <point x="663" y="539" type="curve" smooth="yes"/>
      <point x="613" y="299" type="line"/>
      <point x="600" y="229"/>
      <point x="588" y="158"/>
      <point x="576" y="87" type="curve"/>
      <point x="572" y="87" type="line"/>
      <point x="556" y="158"/>
      <point x="540" y="230"/>
      <point x="524" y="299" type="curve"/>
      <point x="433" y="656" type="line"/>
      <point x="357" y="656" type="line"/>
      <point x="266" y="299" type="line"/>
      <point x="251" y="229"/>
      <point x="235" y="158"/>
      <point x="220" y="87" type="curve"/>
      <point x="216" y="87" type="line"/>
      <point x="204" y="158"/>
      <point x="190" y="228"/>
      <point x="178" y="299" type="curve"/>
      <point x="109" y="656" type="line"/>
      <point x="23" y="656" type="line"/>
    </contour>
  </outline>
</glyph>
<glyph name="Yhook" format="1">
  <advance width="543"/>
  <outline>
    <contour>
      <point x="196" y="0" type="line"/>
      <point x="280" y="0" type="line"/>
      <point x="280" y="254" type="line"/>
      <point x="419" y="537" type="line" smooth="yes"/>
      <point x="431" y="562"/>
      <point x="446" y="593"/>
      <point x="476" y="593" type="curve" smooth="yes"/>
      <point x="500" y="593"/>
      <point x="515" y="577"/>
      <point x="526" y="561" type="curve"/>
      <point x="576" y="604" type="line"/>
      <point x="554" y="632"/>
      <point x="516" y="668"/>
      <point x="466" y="668" type="curve" smooth="yes"/>
      <point x="413" y="668"/>
      <point x="376" y="624"/>
      <point x="350" y="560" type="curve" smooth="yes"/>
      <point x="240" y="328" type="line"/>
      <point x="236" y="328" type="line"/>
      <point x="214" y="377"/>
      <point x="194" y="423"/>
      <point x="173" y="471" type="curve"/>
      <point x="88" y="656" type="line"/>
      <point x="-1" y="656" type="line"/>
      <point x="196" y="254" type="line"/>
    </contour>
  </outline>
</glyph>
<glyph name="Z" format="1">
  <advance width="539"/>
  <outline>
    <contour>
      <point x="45" y="0" type="line"/>
      <point x="497" y="0" type="line"/>
      <point x="497" y="71" type="line"/>
      <point x="148" y="71" type="line"/>
      <point x="494" y="607" type="line"/>
      <point x="494" y="656" type="line"/>
      <point x="76" y="656" type="line"/>
      <point x="76" y="586" type="line"/>
      <point x="390" y="586" type="line"/>
      <point x="45" y="50" type="line"/>
    </contour>
    <contour>
      <point x="280" y="676" type="move" name="aboveUC"/>
    </contour>
    <contour>
      <point x="280" y="0" type="move" name="baseLC"/>
    </contour>
    <contour>
      <point x="282" y="-20" type="move" name="belowLC"/>
    </contour>
  </outline>
</glyph>
<glyph name="alphalatin" format="1">
  <advance width="555"/>
  <outline>
    <contour>
      <point x="248" y="-12" type="curve" smooth="yes"/>
      <point x="306" y="-12"/>
      <point x="361" y="21"/>
      <point x="397" y="60" type="curve"/>
      <point x="400" y="60" type="line"/>
      <point x="407" y="45"/>
      <point x="421" y="28"/>
      <point x="440" y="28" type="curve" smooth="yes"/>
      <point x="452" y="-1"/>
      <point x="470" y="-11"/>
      <point x="494" y="-8" type="curve"/>
      <point x="502" y="-8"/>
      <point x="507" y="41"/>
      <point x="512" y="42" type="curve"/>
      <point x="510" y="41"/>
      <point x="505" y="58"/>
      <point x="504" y="58" type="curve" smooth="yes"/>
      <point x="493" y="56"/>
      <point x="488" y="59"/>
      <point x="485" y="69" type="curve" smooth="yes"/>
      <point x="478" y="69"/>
      <point x="473" y="200"/>
      <point x="473" y="213" type="curve"/>
      <point x="423" y="486" type="line"/>
      <point x="401" y="468" type="line"/>
      <point x="398" y="439" type="line"/>
      <point x="384" y="455"/>
      <point x="368" y="461"/>
      <point x="350" y="461" type="curve" smooth="yes"/>
      <point x="284" y="484"/>
      <point x="219" y="462"/>
      <point x="183" y="402" type="curve" smooth="yes"/>
      <point x="109" y="342"/>
      <point x="77" y="243"/>
    </contour>
    <contour>
      <point x="266" y="57" type="curve" smooth="yes"/>
      <point x="181" y="57"/>
      <point x="132" y="127"/>
      <point x="132" y="243" type="curve" smooth="yes"/>
      <point x="132" y="354"/>
      <point x="194" y="429"/>
      <point x="272" y="429" type="curve" smooth="yes"/>
      <point x="312" y="429"/>
      <point x="349" y="415"/>
      <point x="390" y="378" type="curve"/>
      <point x="390" y="124" type="line"/>
      <point x="350" y="79"/>
      <point x="311" y="57"/>
    </contour>
    <contour>
      <point x="282" y="509" type="move" name="aboveLC"/>
    </contour>
    <contour>
      <point x="277" y="0" type="move" name="baseLC"/>
    </contour>
    <contour>
      <point x="283" y="-22" type="move" name="belowLC"/>
    </contour>
  </outline>
</glyph>
<glyph name="betalatin" format="1">
  <advance width="565"/>
  <outline>
    <contour>
      <point x="161" y="-179" type="line"/>
      <point x="161" y="475" type="line" smooth="yes"/>
      <point x="161" y="598"/>
      <point x="206" y="657"/>
      <point x="281" y="657" type="curve" smooth="yes"/>
      <point x="335" y="657"/>
      <point x="382" y="620"/>
      <point x="382" y="545" type="curve" smooth="yes"/>
      <point x="382" y="481"/>
      <point x="332" y="395"/>
      <point x="228" y="395" type="curve" smooth="yes"/>
      <point x="211" y="395" type="line"/>
      <point x="211" y="334" type="line"/>
      <point x="303" y="334" type="line" smooth="yes"/>
      <point x="395" y="334"/>
      <point x="439" y="275"/>
      <point x="439" y="198" type="curve" smooth="yes"/>
      <point x="439" y="113"/>
      <point x="383" y="57"/>
      <point x="321" y="57" type="curve" smooth="yes"/>
      <point x="265" y="57"/>
      <point x="223" y="75"/>
      <point x="191" y="111" type="curve"/>
      <point x="178" y="48" type="line"/>
      <point x="223" y="11"/>
      <point x="268" y="-12"/>
      <point x="334" y="-12" type="curve" smooth="yes"/>
      <point x="424" y="-12"/>
      <point x="521" y="62"/>
      <point x="521" y="193" type="curve" smooth="yes"/>
      <point x="521" y="295"/>
      <point x="461" y="368"/>
      <point x="366" y="381" type="curve"/>
      <point x="366" y="385" type="line"/>
      <point x="427" y="423"/>
      <point x="462" y="479"/>
      <point x="462" y="551" type="curve" smooth="yes"/>
      <point x="462" y="668"/>
      <point x="374" y="724"/>
      <point x="279" y="724" type="curve" smooth="yes"/>
      <point x="143" y="724"/>
      <point x="79" y="625"/>
      <point x="79" y="491" type="curve" smooth="yes"/>
      <point x="79" y="-179" type="line"/>
    </contour>
  </outline>
</glyph>
<glyph name="brevecmb.cyr" format="1">
  <outline>
    <contour>
      <point x="0" y="572" type="curve" smooth="yes"/>
      <point x="112" y="572"/>
      <point x="153" y="647"/>
      <point x="157" y="725" type="curve"/>
      <point x="89" y="725" type="line"/>
      <point x="87" y="668"/>
      <point x="66" y="620"/>
      <point x="0" y="620" type="curve" smooth="yes"/>
      <point x="-66" y="620"/>
      <point x="-87" y="668"/>
      <point x="-89" y="725" type="curve"/>
      <point x="-157" y="725" type="line"/>
      <point x="-153" y="647"/>
      <point x="-112" y="572"/>
    </contour>
    <contour>
      <point x="0" y="507" type="move" name="_aboveLC"/>
    </contour>
    <contour>
      <point x="0" y="507" type="move" name="aboveLC"/>
    </contour>
  </outline>
</glyph>
<glyph name="caron.a" format="1">
  <advance width="18"/>
  <outline>
    <contour>
      <point x="-25" y="548" type="line"/>
      <point x="15" y="548" type="line"/>
      <point x="29" y="703" type="line"/>
      <point x="30" y="760" type="line"/>
      <point x="-29" y="760" type="line"/>
    </contour>
  </outline>
</glyph>
<glyph name="chilatin" format="1">
  <advance width="519"/>
  <outline>
    <contour>
      <point x="357" y="-19" type="curve" smooth="yes"/>
      <point x="284" y="181" type="line"/>
      <point x="233" y="118" type="line"/>
      <point x="297" y="-62" type="line" smooth="yes"/>
      <point x="336" y="-177"/>
      <point x="374" y="-205"/>
      <point x="426" y="-205" type="curve" smooth="yes"/>
      <point x="455" y="-205"/>
      <point x="484" y="-197"/>
      <point x="504" y="-183" type="curve"/>
      <point x="478" y="-123" type="line"/>
      <point x="465" y="-132"/>
      <point x="449" y="-137"/>
      <point x="433" y="-137" type="curve" smooth="yes"/>
      <point x="408" y="-137"/>
      <point x="388" y="-104"/>
    </contour>
    <contour>
      <point x="106" y="-205" type="line"/>
      <point x="239" y="89" type="line"/>
      <point x="248" y="89" type="line"/>
      <point x="292" y="150" type="line"/>
      <point x="455" y="486" type="line"/>
      <point x="368" y="486" type="line"/>
      <point x="253" y="223" type="line"/>
      <point x="244" y="223" type="line"/>
      <point x="201" y="158" type="line"/>
      <point x="16" y="-205" type="line"/>
    </contour>
    <contour>
      <point x="142" y="312" type="curve" smooth="yes"/>
      <point x="211" y="121" type="line"/>
      <point x="261" y="185" type="line"/>
      <point x="202" y="355" type="line" smooth="yes"/>
      <point x="162" y="470"/>
      <point x="124" y="498"/>
      <point x="72" y="498" type="curve" smooth="yes"/>
      <point x="43" y="498"/>
      <point x="14" y="490"/>
      <point x="-5" y="476" type="curve"/>
      <point x="21" y="416" type="line"/>
      <point x="33" y="425"/>
      <point x="49" y="430"/>
      <point x="65" y="430" type="curve" smooth="yes"/>
      <point x="91" y="430"/>
      <point x="110" y="397"/>
    </contour>
  </outline>
</glyph>
<glyph name="chook" format="1">
  <advance width="456"/>
  <outline>
    <contour>
      <point x="353" y="440" type="curve"/>
      <point x="422" y="441" type="line"/>
      <point x="398" y="473"/>
      <point x="389" y="495"/>
      <point x="389" y="526" type="curve" smooth="yes"/>
      <point x="389" y="552"/>
      <point x="409" y="573"/>
      <point x="443" y="573" type="curve" smooth="yes"/>
      <point x="457" y="573"/>
      <point x="466" y="569"/>
      <point x="477" y="565" type="curve"/>
      <point x="493" y="628" type="line"/>
      <point x="477" y="634"/>
      <point x="459" y="640"/>
      <point x="432" y="640" type="curve" smooth="yes"/>
      <point x="367" y="640"/>
      <point x="322" y="600"/>
      <point x="322" y="541" type="curve" smooth="yes"/>
      <point x="322" y="506"/>
      <point x="330" y="478"/>
    </contour>
    <component base="c"/>
  </outline>
</glyph>
<glyph name="clickalveolar" format="1">
  <advance width="353"/>
  <outline>
    <contour>
      <point x="144" y="-205" type="line"/>
      <point x="219" y="-205" type="line"/>
      <point x="219" y="712" type="line"/>
      <point x="144" y="712" type="line"/>
    </contour>
    <contour>
      <point x="6" y="306" type="line"/>
      <point x="345" y="306" type="line"/>
      <point x="345" y="353" type="line"/>
      <point x="83" y="353" type="line"/>
      <point x="6" y="348" type="line"/>
    </contour>
    <contour>
      <point x="6" y="146" type="line"/>
      <point x="345" y="146" type="line"/>
      <point x="345" y="194" type="line"/>
      <point x="83" y="194" type="line"/>
      <point x="6" y="189" type="line"/>
    </contour>
  </outline>
</glyph>
<glyph name="clickdental" format="1">
  <advance width="241"/>
  <outline>
    <contour>
      <point x="92" y="-95" type="line"/>
      <point x="150" y="-95" type="line"/>
      <point x="150" y="712" type="line"/>
      <point x="92" y="712" type="line"/>
    </contour>
  </outline>
</glyph>
<glyph name="clickretroflex" format="1">
  <advance width="274"/>
  <outline>
    <contour>
      <point x="113" y="102" type="line"/>
      <point x="161" y="102" type="line"/>
      <point x="171" y="591" type="line"/>
      <point x="173" y="712" type="line"/>
      <point x="102" y="712" type="line"/>
      <point x="104" y="591" type="line"/>
    </contour>
    <contour>
      <point x="137" y="-107" type="curve" smooth="yes"/>
      <point x="166" y="-107"/>
      <point x="189" y="-84"/>
      <point x="189" y="-52" type="curve" smooth="yes"/>
      <point x="189" y="-19"/>
      <point x="166" y="4"/>
      <point x="137" y="4" type="curve" smooth="yes"/>
      <point x="109" y="4"/>
      <point x="85" y="-19"/>
      <point x="85" y="-52" type="curve" smooth="yes"/>
      <point x="85" y="-84"/>
      <point x="109" y="-107"/>
    </contour>
  </outline>
</glyph>
<glyph name="commabelowcmb.a" format="1">
  <outline>
    <contour>
      <point x="39" y="575" type="curve"/>
      <point x="57" y="613" type="line"/>
      <point x="11" y="617"/>
      <point x="-14" y="629"/>
      <point x="-14" y="655" type="curve" smooth="yes"/>
      <point x="-14" y="683"/>
      <point x="11" y="698"/>
      <point x="95" y="703" type="curve"/>
      <point x="87" y="744" type="line"/>
      <point x="-19" y="738"/>
      <point x="-78" y="710"/>
      <point x="-78" y="652" type="curve" smooth="yes"/>
      <point x="-78" y="607"/>
      <point x="-48" y="585"/>
    </contour>
    <contour>
      <point x="0" y="507" type="move" name="_aboveLC"/>
    </contour>
  </outline>
</glyph>
<glyph name="dezh" format="1">
  <advance width="885"/>
  <outline>
    <contour>
      <point x="427" y="419" type="line"/>
      <point x="568" y="419" type="line"/>
      <point x="568" y="486" type="line"/>
      <point x="427" y="486" type="line"/>
    </contour>
    <component base="ezh" xOffset="461"/>
    <component base="d"/>
    <contour>
      <point x="441" y="730" type="move" name="aboveUC"/>
    </contour>
    <contour>
      <point x="360" y="-20" type="move" name="belowLC"/>
    </contour>
  </outline>
</glyph>
<glyph name="dieresisgravecmb.cap" format="1">
  <outline>
    <contour>
      <point x="-103" y="715" type="curve" smooth="yes"/>
      <point x="-77" y="715"/>
      <point x="-57" y="734"/>
      <point x="-57" y="761" type="curve" smooth="yes"/>
      <point x="-57" y="787"/>
      <point x="-77" y="806"/>
      <point x="-103" y="806" type="curve" smooth="yes"/>
      <point x="-129" y="806"/>
      <point x="-148" y="787"/>
      <point x="-148" y="761" type="curve" smooth="yes"/>
      <point x="-148" y="734"/>
      <point x="-129" y="715"/>
    </contour>
    <contour>
      <point x="1" y="823" type="line"/>
      <point x="38" y="849" type="line"/>
      <point x="-57" y="968" type="line"/>
      <point x="-110" y="932" type="line"/>
    </contour>
    <contour>
      <point x="103" y="715" type="curve" smooth="yes"/>
      <point x="129" y="715"/>
      <point x="148" y="734"/>
      <point x="148" y="761" type="curve" smooth="yes"/>
      <point x="148" y="787"/>
      <point x="129" y="806"/>
      <point x="103" y="806" type="curve" smooth="yes"/>
      <point x="77" y="806"/>
      <point x="57" y="787"/>
      <point x="57" y="761" type="curve" smooth="yes"/>
      <point x="57" y="734"/>
      <point x="77" y="715"/>
    </contour>
    <contour>
      <point x="0" y="676" type="move" name="_aboveUC"/>
    </contour>
  </outline>
</glyph>
<glyph name="dotlessi" format="1">
  <advance width="246"/>
  <outline>
    <contour>
      <point x="82" y="0" type="line"/>
      <point x="164" y="0" type="line"/>
      <point x="164" y="486" type="line"/>
      <point x="82" y="486" type="line"/>
    </contour>
    <contour>
      <point x="152" y="0" type="move" name="ogonekLC"/>
    </contour>
    <contour>
      <point x="124" y="507" type="move" name="aboveLC"/>
    </contour>
    <contour>
      <point x="123" y="0" type="move" name="baseLC"/>
    </contour>
    <contour>
      <point x="123" y="-20" type="move" name="belowLC"/>
    </contour>
  </outline>
</glyph>
<glyph name="dotlessjstrokehook" format="1">
  <advance width="270"/>
  <outline>
    <contour>
      <point x="8" y="231" type="line"/>
      <point x="259" y="231" type="line"/>
      <point x="259" y="279" type="line"/>
      <point x="96" y="279" type="line"/>
      <point x="8" y="274" type="line"/>
    </contour>
    <component base="esh" xOffset="11"/>
    <contour>
      <point x="135" y="730" type="move" name="aboveUC"/>
    </contour>
    <contour>
      <point x="135" y="-20" type="move" name="belowLC"/>
    </contour>
  </outline>
</glyph>
<glyph name="e" format="1">
  <advance width="496"/>
  <outline>
    <contour>
      <point x="279" y="-12" type="curve" smooth="yes"/>
      <point x="345" y="-12"/>
      <point x="397" y="11"/>
      <point x="439" y="38" type="curve"/>
      <point x="410" y="92" type="line"/>
      <point x="374" y="69"/>
      <point x="335" y="54"/>
      <point x="289" y="54" type="curve" smooth="yes"/>
      <point x="200" y="54"/>
      <point x="124" y="116"/>
      <point x="124" y="242" type="curve" smooth="yes"/>
      <point x="124" y="375"/>
      <point x="196" y="433"/>
      <point x="266" y="433" type="curve" smooth="yes"/>
      <point x="342" y="433"/>
      <point x="386" y="380"/>
      <point x="386" y="282" type="curve"/>
      <point x="109" y="282" type="line"/>
      <point x="110" y="223" type="line"/>
      <point x="455" y="223" type="line"/>
      <point x="457" y="235"/>
      <point x="458" y="253"/>
      <point x="458" y="270" type="curve" smooth="yes"/>
      <point x="458" y="409"/>
      <point x="388" y="498"/>
      <point x="264" y="498" type="curve" smooth="yes"/>
      <point x="153" y="498"/>
      <point x="46" y="401"/>
      <point x="46" y="242" type="curve" smooth="yes"/>
      <point x="46" y="83"/>
      <point x="149" y="-12"/>
    </contour>
    <contour>
      <point x="370" y="0" type="move" name="ogonekLC"/>
    </contour>
    <contour>
      <point x="267" y="507" type="move" name="aboveLC"/>
    </contour>
    <contour>
      <point x="257" y="0" type="move" name="baseLC"/>
    </contour>
    <contour>
      <point x="257" y="-20" type="move" name="belowLC"/>
    </contour>
  </outline>
</glyph>
<glyph name="emdash.sups" format="1">
  <advance width="562"/>
  <outline>
    <contour>
      <point x="41" y="559" type="line"/>
      <point x="522" y="559" type="line"/>
      <point x="522" y="600" type="line"/>
      <point x="41" y="600" type="line"/>
    </contour>
  </outline>
</glyph>
<glyph name="en" format="1">
  <advance width="562"/>
  <outline>
    <contour>
      <point x="82" y="0" type="line"/>
      <point x="164" y="0" type="line"/>
      <point x="164" y="216" type="line"/>
      <point x="398" y="216" type="line"/>
      <point x="398" y="0" type="line"/>
      <point x="480" y="0" type="line"/>
      <point x="480" y="486" type="line"/>
      <point x="398" y="486" type="line"/>
      <point x="398" y="289" type="line"/>
      <point x="164" y="289" type="line"/>
      <point x="164" y="486" type="line"/>
      <point x="82" y="486" type="line"/>
    </contour>
    <contour>
      <point x="281" y="507" type="move" name="aboveLC"/>
    </contour>
  </outline>
</glyph>
<glyph name="eopen.sups" format="1">
  <advance width="288"/>
  <outline>
    <contour>
      <point x="159" y="387" type="curve" smooth="yes"/>
      <point x="202" y="387"/>
      <point x="235" y="396"/>
      <point x="272" y="422" type="curve"/>
      <point x="247" y="463" type="line"/>
      <point x="219" y="444"/>
      <point x="193" y="434"/>
      <point x="166" y="434" type="curve" smooth="yes"/>
      <point x="119" y="434"/>
      <point x="86" y="456"/>
      <point x="86" y="489" type="curve" smooth="yes"/>
      <point x="86" y="522"/>
      <point x="113" y="540"/>
      <point x="163" y="540" type="curve" smooth="yes"/>
      <point x="210" y="540" type="line"/>
      <point x="210" y="583" type="line"/>
      <point x="173" y="583" type="line" smooth="yes"/>
      <point x="125" y="583"/>
      <point x="102" y="601"/>
      <point x="102" y="628" type="curve" smooth="yes"/>
      <point x="102" y="659"/>
      <point x="129" y="676"/>
      <point x="163" y="676" type="curve" smooth="yes"/>
      <point x="191" y="676"/>
      <point x="213" y="666"/>
      <point x="237" y="651" type="curve"/>
      <point x="261" y="692" type="line"/>
      <point x="232" y="712"/>
      <point x="200" y="724"/>
      <point x="161" y="724" type="curve" smooth="yes"/>
      <point x="98" y="724"/>
      <point x="41" y="696"/>
      <point x="41" y="636" type="curve" smooth="yes"/>
      <point x="41" y="607"/>
      <point x="60" y="578"/>
      <point x="96" y="566" type="curve"/>
      <point x="96" y="563" type="line"/>
      <point x="58" y="554"/>
      <point x="25" y="529"/>
      <point x="25" y="484" type="curve" smooth="yes"/>
      <point x="25" y="423"/>
      <point x="86" y="387"/>
    </contour>
  </outline>
</glyph>
<glyph name="eopenreversedclosed" format="1">
  <advance width="546"/>
  <outline>
    <contour>
      <point x="288" y="-12" type="curve" smooth="yes"/>
      <point x="406" y="-12"/>
      <point x="497" y="44"/>
      <point x="497" y="134" type="curve" smooth="yes"/>
      <point x="497" y="204"/>
      <point x="445" y="241"/>
      <point x="389" y="256" type="curve"/>
      <point x="389" y="260" type="line"/>
      <point x="442" y="278"/>
      <point x="471" y="322"/>
      <point x="471" y="367" type="curve" smooth="yes"/>
      <point x="471" y="456"/>
      <point x="391" y="498"/>
      <point x="291" y="498" type="curve" smooth="yes"/>
      <point x="157" y="498"/>
      <point x="46" y="412"/>
      <point x="46" y="242" type="curve" smooth="yes"/>
      <point x="46" y="74"/>
      <point x="153" y="-12"/>
    </contour>
    <contour>
      <point x="287" y="54" type="curve" smooth="yes"/>
      <point x="191" y="54"/>
      <point x="131" y="120"/>
      <point x="131" y="242" type="curve" smooth="yes"/>
      <point x="131" y="365"/>
      <point x="192" y="433"/>
      <point x="290" y="433" type="curve" smooth="yes"/>
      <point x="346" y="433"/>
      <point x="389" y="407"/>
      <point x="389" y="357" type="curve" smooth="yes"/>
      <point x="389" y="313"/>
      <point x="355" y="282"/>
      <point x="280" y="282" type="curve" smooth="yes"/>
      <point x="252" y="282" type="line"/>
      <point x="252" y="223" type="line"/>
      <point x="295" y="223" type="line" smooth="yes"/>
      <point x="371" y="223"/>
      <point x="415" y="194"/>
      <point x="415" y="141" type="curve" smooth="yes"/>
      <point x="415" y="87"/>
      <point x="365" y="54"/>
    </contour>
    <contour>
      <point x="284" y="507" type="move" name="aboveLC"/>
    </contour>
    <contour>
      <point x="268" y="-20" type="move" name="belowLC"/>
    </contour>
  </outline>
</glyph>
<glyph name="er" format="1">
  <advance width="555"/>
  <outline>
    <component base="p"/>
    <contour>
      <point x="290" y="507" type="move" name="aboveLC"/>
    </contour>
  </outline>
</glyph>
<glyph name="es" format="1">
  <advance width="456"/>
  <outline>
    <component base="c"/>
    <contour>
      <point x="272" y="507" type="move" name="aboveLC"/>
    </contour>
  </outline>
</glyph>
<glyph name="eshcurl" format="1">
  <advance width="407"/>
  <outline>
    <contour>
      <point x="324" y="0" type="curve" smooth="yes"/>
      <point x="325" y="563" type="line" smooth="yes"/>
      <point x="325" y="622"/>
      <point x="338" y="659"/>
      <point x="395" y="659" type="curve" smooth="yes"/>
      <point x="408" y="659"/>
      <point x="421" y="654"/>
      <point x="431" y="650" type="curve"/>
      <point x="447" y="713" type="line"/>
      <point x="432" y="720"/>
      <point x="412" y="726"/>
      <point x="386" y="726" type="curve" smooth="yes"/>
      <point x="281" y="726"/>
      <point x="242" y="663"/>
      <point x="242" y="564" type="curve" smooth="yes"/>
      <point x="242" y="0" type="line" smooth="yes"/>
      <point x="242" y="-83"/>
      <point x="191" y="-154"/>
      <point x="119" y="-154" type="curve" smooth="yes"/>
      <point x="82" y="-154"/>
      <point x="51" y="-132"/>
      <point x="51" y="-101" type="curve" smooth="yes"/>
      <point x="51" y="-80"/>
      <point x="66" y="-55"/>
      <point x="101" y="-55" type="curve" smooth="yes"/>
      <point x="154" y="-55"/>
      <point x="214" y="-123"/>
      <point x="260" y="-220" type="curve"/>
      <point x="308" y="-194" type="line"/>
      <point x="245" y="-72"/>
      <point x="179" y="-11"/>
      <point x="97" y="-11" type="curve" smooth="yes"/>
      <point x="34" y="-11"/>
      <point x="-7" y="-51"/>
      <point x="-7" y="-107" type="curve" smooth="yes"/>
      <point x="-7" y="-170"/>
      <point x="43" y="-220"/>
      <point x="127" y="-220" type="curve" smooth="yes"/>
      <point x="237" y="-220"/>
      <point x="324" y="-124"/>
    </contour>
  </outline>
</glyph>
<glyph name="ezhcurl" format="1">
  <advance width="425"/>
  <outline>
    <contour>
      <point x="179" y="-217" type="curve" smooth="yes"/>
      <point x="304" y="-217"/>
      <point x="406" y="-124"/>
      <point x="406" y="2" type="curve" smooth="yes"/>
      <point x="406" y="118"/>
      <point x="326" y="203"/>
      <point x="197" y="189" type="curve"/>
      <point x="385" y="442" type="line"/>
      <point x="385" y="486" type="line"/>
      <point x="44" y="486" type="line"/>
      <point x="44" y="419" type="line"/>
      <point x="285" y="419" type="line"/>
      <point x="93" y="161" type="line"/>
      <point x="126" y="116" type="line"/>
      <point x="149" y="126"/>
      <point x="161" y="132"/>
      <point x="189" y="132" type="curve" smooth="yes"/>
      <point x="275" y="132"/>
      <point x="323" y="81"/>
      <point x="323" y="0" type="curve" smooth="yes"/>
      <point x="323" y="-84"/>
      <point x="259" y="-152"/>
      <point x="171" y="-152" type="curve" smooth="yes"/>
      <point x="125" y="-152"/>
      <point x="88" y="-128"/>
      <point x="88" y="-98" type="curve" smooth="yes"/>
      <point x="88" y="-76"/>
      <point x="105" y="-53"/>
      <point x="149" y="-53" type="curve" smooth="yes"/>
      <point x="211" y="-53"/>
      <point x="294" y="-120"/>
      <point x="335" y="-218" type="curve"/>
      <point x="390" y="-192" type="line"/>
      <point x="327" y="-69"/>
      <point x="238" y="-8"/>
      <point x="145" y="-8" type="curve" smooth="yes"/>
      <point x="73" y="-8"/>
      <point x="25" y="-49"/>
      <point x="25" y="-105" type="curve" smooth="yes"/>
      <point x="25" y="-167"/>
      <point x="82" y="-217"/>
    </contour>
    <contour>
      <point x="187" y="519" type="move" name="aboveLC"/>
    </contour>
  </outline>
</glyph>
<glyph name="glottalstopinverted" format="1">
  <advance width="417"/>
  <outline>
    <contour>
      <point x="146" y="712" type="line"/>
      <point x="146" y="388" type="line"/>
      <point x="262" y="321"/>
      <point x="314" y="267"/>
      <point x="314" y="182" type="curve" smooth="yes"/>
      <point x="314" y="106"/>
      <point x="268" y="56"/>
      <point x="188" y="56" type="curve" smooth="yes"/>
      <point x="120" y="56"/>
      <point x="75" y="91"/>
      <point x="42" y="129" type="curve"/>
      <point x="-2" y="75" type="line"/>
      <point x="39" y="31"/>
      <point x="100" y="-12"/>
      <point x="194" y="-12" type="curve" smooth="yes"/>
      <point x="307" y="-12"/>
      <point x="397" y="54"/>
      <point x="397" y="180" type="curve" smooth="yes"/>
      <point x="397" y="295"/>
      <point x="326" y="359"/>
      <point x="228" y="425" type="curve"/>
      <point x="228" y="712" type="line"/>
    </contour>
  </outline>
</glyph>
<glyph name="glottalstopstroke" format="1">
  <advance width="441"/>
  <outline>
    <contour>
      <point x="158" y="0" type="line"/>
      <point x="240" y="0" type="line"/>
      <point x="240" y="277" type="line"/>
      <point x="422" y="277" type="line"/>
      <point x="422" y="324" type="line"/>
      <point x="278" y="324" type="line"/>
      <point x="355" y="380"/>
      <point x="412" y="447"/>
      <point x="412" y="532" type="curve" smooth="yes"/>
      <point x="412" y="659"/>
      <point x="322" y="724"/>
      <point x="209" y="724" type="curve" smooth="yes"/>
      <point x="114" y="724"/>
      <point x="54" y="681"/>
      <point x="13" y="637" type="curve"/>
      <point x="57" y="583" type="line"/>
      <point x="90" y="621"/>
      <point x="135" y="656"/>
      <point x="203" y="656" type="curve" smooth="yes"/>
      <point x="283" y="656"/>
      <point x="328" y="607"/>
      <point x="328" y="530" type="curve" smooth="yes"/>
      <point x="328" y="456"/>
      <point x="279" y="391"/>
      <point x="172" y="324" type="curve"/>
      <point x="83" y="324" type="line"/>
      <point x="7" y="319" type="line"/>
      <point x="7" y="277" type="line"/>
      <point x="158" y="277" type="line"/>
    </contour>
    <contour>
      <point x="220" y="730" type="move" name="aboveUC"/>
    </contour>
    <contour>
      <point x="220" y="-20" type="move" name="belowLC"/>
    </contour>
  </outline>
</glyph>
<glyph name="glottalstopstrokereversed" format="1">
  <advance width="441"/>
  <outline>
    <contour>
      <point x="200" y="0" type="line"/>
      <point x="282" y="0" type="line"/>
      <point x="282" y="277" type="line"/>
      <point x="434" y="277" type="line"/>
      <point x="434" y="324" type="line"/>
      <point x="269" y="324" type="line"/>
      <point x="162" y="391"/>
      <point x="112" y="456"/>
      <point x="112" y="530" type="curve" smooth="yes"/>
      <point x="112" y="607"/>
      <point x="162" y="656"/>
      <point x="248" y="656" type="curve" smooth="yes"/>
      <point x="311" y="656"/>
      <point x="353" y="621"/>
      <point x="384" y="583" type="curve"/>
      <point x="428" y="637" type="line"/>
      <point x="388" y="681"/>
      <point x="331" y="724"/>
      <point x="242" y="724" type="curve" smooth="yes"/>
      <point x="123" y="724"/>
      <point x="29" y="659"/>
      <point x="29" y="532" type="curve" smooth="yes"/>
      <point x="29" y="447"/>
      <point x="86" y="380"/>
      <point x="163" y="324" type="curve"/>
      <point x="95" y="324" type="line"/>
      <point x="19" y="319" type="line"/>
      <point x="19" y="277" type="line"/>
      <point x="200" y="277" type="line"/>
    </contour>
    <contour>
      <point x="220" y="730" type="move" name="aboveUC"/>
    </contour>
    <contour>
      <point x="220" y="-20" type="move" name="belowLC"/>
    </contour>
  </outline>
</glyph>
<glyph name="gsmallhook" format="1">
  <advance width="497"/>
  <outline>
    <contour>
      <point x="371" y="440" type="curve"/>
      <point x="440" y="438" type="line"/>
      <point x="416" y="471"/>
      <point x="408" y="493"/>
      <point x="408" y="525" type="curve" smooth="yes"/>
      <point x="408" y="552"/>
      <point x="427" y="573"/>
      <point x="462" y="573" type="curve" smooth="yes"/>
      <point x="475" y="573"/>
      <point x="485" y="569"/>
      <point x="495" y="565" type="curve"/>
      <point x="511" y="628" type="line"/>
      <point x="495" y="634"/>
      <point x="477" y="640"/>
      <point x="451" y="640" type="curve" smooth="yes"/>
      <point x="385" y="640"/>
      <point x="341" y="600"/>
      <point x="341" y="541" type="curve" smooth="yes"/>
      <point x="341" y="506"/>
      <point x="348" y="478"/>
    </contour>
    <contour>
      <point x="280" y="-12" type="curve" smooth="yes"/>
      <point x="352" y="-12"/>
      <point x="412" y="15"/>
      <point x="448" y="49" type="curve"/>
      <point x="448" y="262" type="line"/>
      <point x="267" y="262" type="line"/>
      <point x="267" y="203" type="line"/>
      <point x="375" y="203" type="line"/>
      <point x="375" y="84" type="line"/>
      <point x="355" y="66"/>
      <point x="323" y="54"/>
      <point x="287" y="54" type="curve" smooth="yes"/>
      <point x="192" y="54"/>
      <point x="129" y="125"/>
      <point x="129" y="244" type="curve" smooth="yes"/>
      <point x="129" y="364"/>
      <point x="200" y="433"/>
      <point x="289" y="433" type="curve" smooth="yes"/>
      <point x="341" y="433"/>
      <point x="372" y="411"/>
      <point x="400" y="387" type="curve"/>
      <point x="440" y="438" type="line"/>
      <point x="406" y="469"/>
      <point x="360" y="498"/>
      <point x="285" y="498" type="curve" smooth="yes"/>
      <point x="152" y="498"/>
      <point x="46" y="402"/>
      <point x="46" y="244" type="curve" smooth="yes"/>
      <point x="46" y="78"/>
      <point x="149" y="-12"/>
    </contour>
    <contour>
      <point x="308" y="509" type="move" name="aboveUC"/>
    </contour>
    <contour>
      <point x="304" y="-22" type="move" name="belowLC"/>
    </contour>
  </outline>
</glyph>
<glyph name="hfishhooktailturned" format="1">
  <advance width="640"/>
  <outline>
    <contour>
      <point x="599" y="-183" type="curve" smooth="yes"/>
      <point x="625" y="-183"/>
      <point x="647" y="-177"/>
      <point x="661" y="-170" type="curve"/>
      <point x="645" y="-107" type="line"/>
      <point x="635" y="-111"/>
      <point x="622" y="-116"/>
      <point x="608" y="-116" type="curve" smooth="yes"/>
      <point x="570" y="-116"/>
      <point x="558" y="-83"/>
      <point x="558" y="-28" type="curve" smooth="yes"/>
      <point x="558" y="486" type="line"/>
      <point x="476" y="486" type="line"/>
      <point x="476" y="141" type="line"/>
      <point x="429" y="83"/>
      <point x="393" y="59"/>
      <point x="343" y="59" type="curve" smooth="yes"/>
      <point x="279" y="59"/>
      <point x="252" y="98"/>
      <point x="252" y="189" type="curve" smooth="yes"/>
      <point x="252" y="317" type="line" smooth="yes"/>
      <point x="252" y="429"/>
      <point x="195" y="498"/>
      <point x="95" y="498" type="curve" smooth="yes"/>
      <point x="64" y="498"/>
      <point x="43" y="493"/>
      <point x="24" y="484" type="curve"/>
      <point x="40" y="421" type="line"/>
      <point x="55" y="429"/>
      <point x="68" y="431"/>
      <point x="86" y="431" type="curve" smooth="yes"/>
      <point x="136" y="431"/>
      <point x="169" y="391"/>
      <point x="169" y="317" type="curve"/>
      <point x="169" y="178" type="line" smooth="yes"/>
      <point x="169" y="54"/>
      <point x="215" y="-12"/>
      <point x="318" y="-12" type="curve" smooth="yes"/>
      <point x="384" y="-12"/>
      <point x="432" y="22"/>
      <point x="476" y="71" type="curve"/>
      <point x="476" y="-28" type="line" smooth="yes"/>
      <point x="476" y="-124"/>
      <point x="509" y="-183"/>
    </contour>
    <contour>
      <point x="366" y="509" type="move" name="aboveLC"/>
    </contour>
    <contour>
      <point x="384" y="-22" type="move" name="belowLC"/>
    </contour>
  </outline>
</glyph>
<glyph name="hfishhookturned" format="1">
  <advance width="640"/>
  <outline>
    <contour>
      <point x="476" y="-205" type="line"/>
      <point x="558" y="-205" type="line"/>
      <point x="558" y="486" type="line"/>
      <point x="476" y="486" type="line"/>
      <point x="476" y="141" type="line"/>
      <point x="429" y="83"/>
      <point x="393" y="59"/>
      <point x="343" y="59" type="curve" smooth="yes"/>
      <point x="279" y="59"/>
      <point x="252" y="98"/>
      <point x="252" y="189" type="curve" smooth="yes"/>
      <point x="252" y="317" type="line" smooth="yes"/>
      <point x="252" y="429"/>
      <point x="195" y="498"/>
      <point x="95" y="498" type="curve" smooth="yes"/>
      <point x="64" y="498"/>
      <point x="43" y="493"/>
      <point x="24" y="484" type="curve"/>
      <point x="40" y="421" type="line"/>
      <point x="55" y="429"/>
      <point x="68" y="431"/>
      <point x="86" y="431" type="curve" smooth="yes"/>
      <point x="136" y="431"/>
      <point x="169" y="391"/>
      <point x="169" y="317" type="curve"/>
      <point x="169" y="178" type="line" smooth="yes"/>
      <point x="169" y="54"/>
      <point x="215" y="-12"/>
      <point x="318" y="-12" type="curve" smooth="yes"/>
      <point x="384" y="-12"/>
      <point x="434" y="23"/>
      <point x="480" y="75" type="curve"/>
      <point x="476" y="-31" type="line"/>
    </contour>
    <contour>
      <point x="366" y="509" type="move" name="aboveLC"/>
    </contour>
    <contour>
      <point x="384" y="-22" type="move" name="belowLC"/>
    </contour>
  </outline>
</glyph>
<glyph name="hoicmb" format="1">
  <outline>
    <contour>
      <point x="-32" y="572" type="line"/>
      <point x="26" y="583"/>
      <point x="80" y="608"/>
      <point x="80" y="666" type="curve" smooth="yes"/>
      <point x="80" y="725"/>
      <point x="28" y="758"/>
      <point x="-63" y="760" type="curve"/>
      <point x="-68" y="706" type="line"/>
      <point x="-12" y="703"/>
      <point x="15" y="688"/>
      <point x="15" y="659" type="curve" smooth="yes"/>
      <point x="15" y="633"/>
      <point x="-9" y="620"/>
      <point x="-41" y="612" type="curve"/>
    </contour>
    <contour>
      <point x="0" y="507" type="move" name="_aboveLC"/>
    </contour>
    <contour>
      <point x="0" y="507" type="move" name="aboveLC"/>
    </contour>
  </outline>
</glyph>
<glyph name="hsmall" format="1">
  <advance width="562"/>
  <outline>
    <component base="en" xOffset="1"/>
    <contour>
      <point x="281" y="507" type="move" name="aboveLC"/>
    </contour>
    <contour>
      <point x="281" y="-20" type="move" name="belowLC"/>
    </contour>
  </outline>
</glyph>
<glyph name="khook" format="1">
  <advance width="488"/>
  <outline>
    <contour>
      <point x="82" y="0" type="line"/>
      <point x="163" y="0" type="line"/>
      <point x="163" y="128" type="line"/>
      <point x="254" y="234" type="line"/>
      <point x="396" y="0" type="line"/>
      <point x="486" y="0" type="line"/>
      <point x="301" y="291" type="line"/>
      <point x="464" y="486" type="line"/>
      <point x="373" y="486" type="line"/>
      <point x="166" y="230" type="line"/>
      <point x="163" y="230" type="line"/>
      <point x="163" y="529" type="line" smooth="yes"/>
      <point x="163" y="612"/>
      <point x="195" y="657"/>
      <point x="259" y="657" type="curve" smooth="yes"/>
      <point x="276" y="657"/>
      <point x="296" y="653"/>
      <point x="314" y="645" type="curve"/>
      <point x="333" y="708" type="line"/>
      <point x="311" y="717"/>
      <point x="280" y="724"/>
      <point x="251" y="724" type="curve" smooth="yes"/>
      <point x="137" y="724"/>
      <point x="82" y="648"/>
      <point x="82" y="537" type="curve" smooth="yes"/>
    </contour>
    <contour>
      <point x="247" y="730" type="move" name="aboveLC"/>
    </contour>
    <contour>
      <point x="271" y="-22" type="move" name="belowLC"/>
    </contour>
  </outline>
</glyph>
<glyph name="kturned" format="1">
  <advance width="495"/>
  <outline>
    <contour>
      <point x="332" y="-205" type="line"/>
      <point x="413" y="-205" type="line"/>
      <point x="413" y="486" type="line"/>
      <point x="332" y="486" type="line"/>
      <point x="332" y="230" type="line"/>
      <point x="329" y="230" type="line"/>
      <point x="122" y="486" type="line"/>
      <point x="30" y="486" type="line"/>
      <point x="193" y="291" type="line"/>
      <point x="9" y="0" type="line"/>
      <point x="99" y="0" type="line"/>
      <point x="241" y="234" type="line"/>
      <point x="332" y="128" type="line"/>
    </contour>
    <contour>
      <point x="247" y="507" type="move" name="aboveLC"/>
    </contour>
    <contour>
      <point x="247" y="-20" type="move" name="belowLC"/>
    </contour>
  </outline>
</glyph>
<glyph name="l.a" format="1">
  <advance width="246"/>
  <outline>
    <contour>
      <point x="82" y="0" type="line"/>
      <point x="164" y="0" type="line"/>
      <point x="164" y="712" type="line"/>
      <point x="82" y="712" type="line"/>
    </contour>
    <contour>
      <point x="123" y="585" type="move" name="aboveUC"/>
    </contour>
    <contour>
      <point x="124" y="653" type="move" name="aboveLC"/>
    </contour>
    <contour>
      <point x="124" y="-20" type="move" name="belowLC"/>
    </contour>
  </outline>
</glyph>
<glyph name="lbeltretroflex" format="1">
  <advance width="302"/>
  <outline>
    <contour>
      <point x="121" y="319" type="curve" smooth="yes"/>
      <point x="296" y="319" type="line"/>
      <point x="296" y="366" type="line"/>
      <point x="111" y="366" type="line" smooth="yes"/>
      <point x="67" y="366"/>
      <point x="47" y="384"/>
      <point x="47" y="405" type="curve" smooth="yes"/>
      <point x="47" y="424"/>
      <point x="57" y="439"/>
      <point x="81" y="439" type="curve" smooth="yes"/>
      <point x="120" y="439"/>
      <point x="131" y="401"/>
      <point x="131" y="372" type="curve"/>
      <point x="165" y="360" type="line"/>
      <point x="165" y="397"/>
      <point x="156" y="485"/>
      <point x="77" y="485" type="curve" smooth="yes"/>
      <point x="28" y="485"/>
      <point x="-6" y="451"/>
      <point x="-6" y="406" type="curve" smooth="yes"/>
      <point x="-6" y="356"/>
      <point x="34" y="319"/>
    </contour>
    <component base="lretroflex" xOffset="49"/>
  </outline>
</glyph>
<glyph name="lezh" format="1">
  <advance width="577"/>
  <outline>
    <contour>
      <point x="119" y="419" type="line"/>
      <point x="259" y="419" type="line"/>
      <point x="259" y="486" type="line"/>
      <point x="119" y="486" type="line"/>
    </contour>
    <component base="l.a"/>
    <component base="ezh" xOffset="152"/>
    <contour>
      <point x="123" y="585" type="move" name="aboveUC"/>
    </contour>
    <contour>
      <point x="124" y="-20" type="move" name="belowLC"/>
    </contour>
  </outline>
</glyph>
<glyph name="liraturkish" format="1">
  <advance width="497"/>
  <outline>
    <contour>
      <point x="115" y="-12" type="line"/>
      <point x="315" y="-16"/>
      <point x="465" y="65"/>
      <point x="465" y="234" type="curve" smooth="yes"/>
      <point x="465" y="251"/>
      <point x="463" y="268"/>
      <point x="458" y="291" type="curve"/>
      <point x="388" y="273" type="line"/>
      <point x="393" y="254"/>
      <point x="393" y="241"/>
      <point x="393" y="230" type="curve" smooth="yes"/>
      <point x="393" y="125"/>
      <point x="287" y="69"/>
      <point x="199" y="66" type="curve"/>
      <point x="199" y="302" type="line"/>
      <point x="371" y="392" type="line"/>
      <point x="356" y="438" type="line"/>
      <point x="199" y="355" type="line"/>
      <point x="199" y="427" type="line"/>
      <point x="371" y="517" type="line"/>
      <point x="356" y="563" type="line"/>
      <point x="199" y="480" type="line"/>
      <point x="199" y="638" type="line"/>
      <point x="115" y="638" type="line"/>
      <point x="115" y="439" type="line"/>
      <point x="15" y="387" type="line"/>
      <point x="30" y="341" type="line"/>
      <point x="115" y="386" type="line"/>
      <point x="115" y="314" type="line"/>
      <point x="15" y="262" type="line"/>
      <point x="30" y="216" type="line"/>
      <point x="115" y="261" type="line"/>
    </contour>
  </outline>
</glyph>
<glyph name="lmiddletilde" format="1">
  <advance width="255"/>
  <outline>
    <component base="l"/>
    <component base="tildeoverlaycmb" xOffset="125" yOffset="-111"/>
    <contour>
      <point x="123" y="730" type="move" name="aboveUC"/>
    </contour>
    <contour>
      <point x="150" y="653" type="move" name="aboveLC"/>
    </contour>
    <contour>
      <point x="147" y="-20" type="move" name="belowLC"/>
    </contour>
  </outline>
</glyph>
<glyph name="mturned" format="1">
  <advance width="829"/>
  <outline>
    <component base="m" xScale="-1.0" yScale="-1.0" xOffset="830" yOffset="486"/>
    <contour>
      <point x="419" y="507" type="move" name="aboveLC"/>
    </contour>
    <contour>
      <point x="425" y="-20" type="move" name="belowLC"/>
    </contour>
  </outline>
</glyph>
<glyph name="ohorn" format="1">
  <advance width="542"/>
  <outline>
    <contour>
      <point x="410" y="443" type="line"/>
      <point x="469" y="460"/>
      <point x="524" y="499"/>
      <point x="524" y="578" type="curve" smooth="yes"/>
      <point x="524" y="607"/>
      <point x="514" y="635"/>
      <point x="501" y="657" type="curve"/>
      <point x="437" y="627" type="line"/>
      <point x="446" y="611"/>
      <point x="452" y="591"/>
      <point x="452" y="572" type="curve" smooth="yes"/>
      <point x="452" y="516"/>
      <point x="420" y="487"/>
      <point x="362" y="476" type="curve"/>
    </contour>
    <component base="o"/>
    <contour>
      <point x="271" y="507" type="move" name="aboveLC"/>
    </contour>
    <contour>
      <point x="271" y="-20" type="move" name="belowLC"/>
    </contour>
  </outline>
</glyph>
<glyph name="omegalatin" format="1">
  <advance width="701"/>
  <outline>
    <contour>
      <point x="220" y="-12" type="curve" smooth="yes"/>
      <point x="275" y="-12"/>
      <point x="323" y="15"/>
      <point x="348" y="76" type="curve"/>
      <point x="352" y="76" type="line"/>
      <point x="376" y="15"/>
      <point x="428" y="-12"/>
      <point x="483" y="-12" type="curve" smooth="yes"/>
      <point x="584" y="-12"/>
      <point x="650" y="69"/>
      <point x="650" y="232" type="curve" smooth="yes"/>
      <point x="650" y="345"/>
      <point x="615" y="421"/>
      <point x="562" y="498" type="curve"/>
      <point x="488" y="467" type="line"/>
      <point x="543" y="385"/>
      <point x="566" y="326"/>
      <point x="566" y="227" type="curve" smooth="yes"/>
      <point x="566" y="111"/>
      <point x="528" y="56"/>
      <point x="475" y="56" type="curve" smooth="yes"/>
      <point x="430" y="56"/>
      <point x="390" y="85"/>
      <point x="390" y="178" type="curve" smooth="yes"/>
      <point x="390" y="308" type="line"/>
      <point x="308" y="308" type="line"/>
      <point x="308" y="178" type="line" smooth="yes"/>
      <point x="308" y="88"/>
      <point x="268" y="56"/>
      <point x="223" y="56" type="curve" smooth="yes"/>
      <point x="169" y="56"/>
      <point x="130" y="113"/>
      <point x="130" y="214" type="curve" smooth="yes"/>
      <point x="130" y="316"/>
      <point x="161" y="385"/>
      <point x="216" y="465" type="curve"/>
      <point x="141" y="498" type="line"/>
      <point x="90" y="422"/>
      <point x="51" y="332"/>
      <point x="51" y="229" type="curve" smooth="yes"/>
      <point x="51" y="68"/>
      <point x="123" y="-12"/>
    </contour>
    <contour>
      <point x="347" y="509" type="move" name="aboveLC"/>
    </contour>
    <contour>
      <point x="347" y="-22" type="move" name="belowLC"/>
    </contour>
  </outline>
</glyph>
<glyph name="omegalatinclosed" format="1">
  <advance width="701"/>
  <outline>
    <contour>
      <point x="220" y="-12" type="curve" smooth="yes"/>
      <point x="275" y="-12"/>
      <point x="324" y="15"/>
      <point x="348" y="76" type="curve"/>
      <point x="352" y="76" type="line"/>
      <point x="376" y="15"/>
      <point x="428" y="-12"/>
      <point x="483" y="-12" type="curve" smooth="yes"/>
      <point x="584" y="-12"/>
      <point x="650" y="63"/>
      <point x="650" y="214" type="curve" smooth="yes"/>
      <point x="650" y="352"/>
      <point x="552" y="498"/>
      <point x="352" y="498" type="curve" smooth="yes"/>
      <point x="138" y="498"/>
      <point x="51" y="333"/>
      <point x="51" y="217" type="curve" smooth="yes"/>
      <point x="51" y="57"/>
      <point x="123" y="-12"/>
    </contour>
    <contour>
      <point x="223" y="56" type="curve" smooth="yes"/>
      <point x="169" y="56"/>
      <point x="130" y="113"/>
      <point x="130" y="214" type="curve" smooth="yes"/>
      <point x="130" y="329"/>
      <point x="213" y="432"/>
      <point x="350" y="432" type="curve" smooth="yes"/>
      <point x="481" y="432"/>
      <point x="570" y="339"/>
      <point x="570" y="222" type="curve" smooth="yes"/>
      <point x="570" y="111"/>
      <point x="531" y="56"/>
      <point x="475" y="56" type="curve" smooth="yes"/>
      <point x="433" y="56"/>
      <point x="390" y="85"/>
      <point x="390" y="178" type="curve" smooth="yes"/>
      <point x="390" y="272" type="line"/>
      <point x="308" y="272" type="line"/>
      <point x="308" y="178" type="line" smooth="yes"/>
      <point x="308" y="88"/>
      <point x="268" y="56"/>
    </contour>
    <contour>
      <point x="347" y="509" type="move" name="aboveLC"/>
    </contour>
    <contour>
      <point x="347" y="-22" type="move" name="belowLC"/>
    </contour>
  </outline>
</glyph>
<glyph name="oopen.sups" format="1">
  <advance width="306"/>
  <outline>
    <contour>
      <point x="122" y="387" type="curve" smooth="yes"/>
      <point x="211" y="387"/>
      <point x="276" y="448"/>
      <point x="276" y="555" type="curve" smooth="yes"/>
      <point x="276" y="662"/>
      <point x="203" y="724"/>
      <point x="119" y="724" type="curve" smooth="yes"/>
      <point x="73" y="724"/>
      <point x="41" y="706"/>
      <point x="21" y="689" type="curve"/>
      <point x="51" y="649" type="line"/>
      <point x="71" y="665"/>
      <point x="87" y="673"/>
      <point x="116" y="673" type="curve" smooth="yes"/>
      <point x="171" y="673"/>
      <point x="212" y="625"/>
      <point x="212" y="555" type="curve" smooth="yes"/>
      <point x="212" y="486"/>
      <point x="173" y="438"/>
      <point x="116" y="438" type="curve" smooth="yes"/>
      <point x="82" y="438"/>
      <point x="61" y="450"/>
      <point x="42" y="465" type="curve"/>
      <point x="16" y="425" type="line"/>
      <point x="39" y="405"/>
      <point x="71" y="387"/>
    </contour>
  </outline>
</glyph>
<glyph name="pe" format="1">
  <advance width="553"/>
  <outline>
    <contour>
      <point x="82" y="0" type="line"/>
      <point x="164" y="0" type="line"/>
      <point x="164" y="419" type="line"/>
      <point x="389" y="419" type="line"/>
      <point x="389" y="0" type="line"/>
      <point x="471" y="0" type="line"/>
      <point x="471" y="486" type="line"/>
      <point x="82" y="486" type="line"/>
    </contour>
    <contour>
      <point x="276" y="507" type="move" name="aboveLC"/>
    </contour>
  </outline>
</glyph>
<glyph name="phook" format="1">
  <advance width="555"/>
  <outline>
    <contour>
      <point x="82" y="-205" type="line"/>
      <point x="164" y="-205" type="line"/>
      <point x="164" y="-41" type="line"/>
      <point x="162" y="44" type="line"/>
      <point x="207" y="9"/>
      <point x="252" y="-12"/>
      <point x="297" y="-12" type="curve" smooth="yes"/>
      <point x="408" y="-12"/>
      <point x="507" y="83"/>
      <point x="507" y="247" type="curve" smooth="yes"/>
      <point x="507" y="395"/>
      <point x="440" y="491"/>
      <point x="314" y="491" type="curve" smooth="yes"/>
      <point x="261" y="491"/>
      <point x="212" y="464"/>
      <point x="163" y="424" type="curve"/>
      <point x="164" y="536" type="line"/>
      <point x="166" y="612"/>
      <point x="195" y="657"/>
      <point x="259" y="657" type="curve" smooth="yes"/>
      <point x="276" y="657"/>
      <point x="296" y="653"/>
      <point x="314" y="645" type="curve"/>
      <point x="333" y="708" type="line"/>
      <point x="311" y="717"/>
      <point x="280" y="724"/>
      <point x="251" y="724" type="curve" smooth="yes"/>
      <point x="137" y="724"/>
      <point x="82" y="648"/>
      <point x="82" y="537" type="curve" smooth="yes"/>
    </contour>
    <contour>
      <point x="283" y="57" type="curve" smooth="yes"/>
      <point x="251" y="57"/>
      <point x="208" y="71"/>
      <point x="164" y="108" type="curve"/>
      <point x="164" y="355" type="line"/>
      <point x="212" y="399"/>
      <point x="253" y="422"/>
      <point x="294" y="422" type="curve" smooth="yes"/>
      <point x="386" y="422"/>
      <point x="422" y="351"/>
      <point x="422" y="246" type="curve" smooth="yes"/>
      <point x="422" y="129"/>
      <point x="363" y="57"/>
    </contour>
    <contour>
      <point x="247" y="730" type="move" name="aboveLC"/>
    </contour>
    <contour>
      <point x="117" y="-218" type="move" name="belowLC"/>
    </contour>
  </outline>
</glyph>
<glyph name="qhook" format="1">
  <advance width="557"/>
  <outline>
    <contour>
      <point x="473" y="470" type="line" smooth="yes"/>
      <point x="473" y="526"/>
      <point x="488" y="562"/>
      <point x="532" y="562" type="curve" smooth="yes"/>
      <point x="544" y="562"/>
      <point x="554" y="560"/>
      <point x="563" y="556" type="curve"/>
      <point x="579" y="619" type="line"/>
      <point x="564" y="625"/>
      <point x="546" y="629"/>
      <point x="523" y="629" type="curve" smooth="yes"/>
      <point x="433" y="629"/>
      <point x="392" y="570"/>
      <point x="392" y="483" type="curve"/>
      <point x="393" y="442" type="line"/>
      <point x="350" y="478"/>
      <point x="314" y="498"/>
      <point x="258" y="498" type="curve" smooth="yes"/>
      <point x="147" y="498"/>
      <point x="47" y="400"/>
      <point x="47" y="242" type="curve" smooth="yes"/>
      <point x="47" y="80"/>
      <point x="126" y="-12"/>
      <point x="248" y="-12" type="curve" smooth="yes"/>
      <point x="304" y="-12"/>
      <point x="355" y="18"/>
      <point x="394" y="56" type="curve"/>
      <point x="390" y="-32" type="line"/>
      <point x="390" y="-205" type="line"/>
      <point x="473" y="-205" type="line"/>
    </contour>
    <contour>
      <point x="266" y="57" type="curve" smooth="yes"/>
      <point x="181" y="57"/>
      <point x="132" y="127"/>
      <point x="132" y="243" type="curve" smooth="yes"/>
      <point x="132" y="354"/>
      <point x="194" y="429"/>
      <point x="272" y="429" type="curve" smooth="yes"/>
      <point x="312" y="429"/>
      <point x="349" y="415"/>
      <point x="390" y="378" type="curve"/>
      <point x="390" y="124" type="line"/>
      <point x="350" y="79"/>
      <point x="311" y="57"/>
    </contour>
    <contour>
      <point x="278" y="509" type="move" name="aboveLC"/>
    </contour>
    <contour>
      <point x="426" y="-218" type="move" name="belowLC"/>
    </contour>
  </outline>
</glyph>
<glyph name="rfishhook" format="1">
  <advance width="334"/>
  <outline>
    <contour>
      <point x="82" y="0" type="line"/>
      <point x="164" y="0" type="line"/>
      <point x="164" y="297" type="line" smooth="yes"/>
      <point x="164" y="383"/>
      <point x="210" y="426"/>
      <point x="259" y="426" type="curve" smooth="yes"/>
      <point x="285" y="426"/>
      <point x="299" y="424"/>
      <point x="321" y="415" type="curve"/>
      <point x="336" y="484" type="line"/>
      <point x="315" y="493"/>
      <point x="287" y="498"/>
      <point x="251" y="498" type="curve" smooth="yes"/>
      <point x="145" y="498"/>
      <point x="82" y="428"/>
      <point x="82" y="314" type="curve" smooth="yes"/>
    </contour>
    <contour>
      <point x="195" y="507" type="move" name="aboveLC"/>
    </contour>
    <contour>
      <point x="167" y="-20" type="move" name="belowLC"/>
    </contour>
  </outline>
</glyph>
<glyph name="rfishhookreversed" format="1">
  <advance width="334"/>
  <outline>
    <contour>
      <point x="169" y="-205" type="line"/>
      <point x="252" y="-205" type="line"/>
      <point x="252" y="314" type="line" smooth="yes"/>
      <point x="252" y="428"/>
      <point x="189" y="498"/>
      <point x="83" y="498" type="curve" smooth="yes"/>
      <point x="47" y="498"/>
      <point x="18" y="493"/>
      <point x="-3" y="484" type="curve"/>
      <point x="12" y="415" type="line"/>
      <point x="35" y="424"/>
      <point x="48" y="426"/>
      <point x="75" y="426" type="curve" smooth="yes"/>
      <point x="124" y="426"/>
      <point x="169" y="383"/>
      <point x="169" y="297" type="curve" smooth="yes"/>
    </contour>
    <contour>
      <point x="139" y="509" type="move" name="aboveLC"/>
    </contour>
  </outline>
</glyph>
<glyph name="rfishhookreversedtail" format="1">
  <advance width="334"/>
  <outline>
    <contour>
      <point x="293" y="-183" type="curve" smooth="yes"/>
      <point x="318" y="-183"/>
      <point x="340" y="-177"/>
      <point x="354" y="-170" type="curve"/>
      <point x="338" y="-107" type="line"/>
      <point x="328" y="-111"/>
      <point x="315" y="-116"/>
      <point x="302" y="-116" type="curve" smooth="yes"/>
      <point x="263" y="-116"/>
      <point x="252" y="-83"/>
      <point x="252" y="-28" type="curve" smooth="yes"/>
      <point x="252" y="314" type="line" smooth="yes"/>
      <point x="252" y="428"/>
      <point x="189" y="498"/>
      <point x="83" y="498" type="curve" smooth="yes"/>
      <point x="47" y="498"/>
      <point x="18" y="493"/>
      <point x="-3" y="484" type="curve"/>
      <point x="12" y="415" type="line"/>
      <point x="35" y="424"/>
      <point x="48" y="426"/>
      <point x="75" y="426" type="curve" smooth="yes"/>
      <point x="124" y="426"/>
      <point x="169" y="383"/>
      <point x="169" y="297" type="curve" smooth="yes"/>
      <point x="169" y="-28" type="line" smooth="yes"/>
      <point x="169" y="-124"/>
      <point x="202" y="-183"/>
    </contour>
    <contour>
      <point x="139" y="509" type="move" name="aboveLC"/>
    </contour>
  </outline>
</glyph>
<glyph name="rstroke" format="1">
  <advance width="355"/>
  <outline>
    <contour>
      <point x="18" y="189" type="line"/>
      <point x="304" y="189" type="line"/>
      <point x="304" y="236" type="line"/>
      <point x="94" y="236" type="line"/>
      <point x="18" y="232" type="line"/>
    </contour>
    <component base="r" xOffset="8"/>
  </outline>
</glyph>
<glyph name="sha" format="1">
  <advance width="749"/>
  <outline>
    <contour>
      <point x="82" y="0" type="line"/>
      <point x="667" y="0" type="line"/>
      <point x="667" y="486" type="line"/>
      <point x="586" y="486" type="line"/>
      <point x="586" y="67" type="line"/>
      <point x="414" y="67" type="line"/>
      <point x="414" y="486" type="line"/>
      <point x="335" y="486" type="line"/>
      <point x="335" y="67" type="line"/>
      <point x="164" y="67" type="line"/>
      <point x="164" y="486" type="line"/>
      <point x="82" y="486" type="line"/>
    </contour>
    <contour>
      <point x="375" y="507" type="move" name="aboveLC"/>
    </contour>
  </outline>
</glyph>
<glyph name="shcha" format="1">
  <advance width="757"/>
  <outline>
    <contour>
      <point x="659" y="-172" type="line"/>
      <point x="730" y="-172" type="line"/>
      <point x="738" y="15" type="line"/>
      <point x="738" y="67" type="line"/>
      <point x="621" y="67" type="line"/>
      <point x="621" y="0" type="line"/>
      <point x="659" y="0" type="line"/>
    </contour>
    <component base="sha"/>
    <contour>
      <point x="375" y="507" type="move" name="aboveLC"/>
    </contour>
  </outline>
</glyph>
<glyph name="te" format="1">
  <advance width="460"/>
  <outline>
    <contour>
      <point x="189" y="0" type="line"/>
      <point x="271" y="0" type="line"/>
      <point x="271" y="419" type="line"/>
      <point x="434" y="419" type="line"/>
      <point x="434" y="486" type="line"/>
      <point x="26" y="486" type="line"/>
      <point x="26" y="419" type="line"/>
      <point x="189" y="419" type="line"/>
    </contour>
    <contour>
      <point x="230" y="507" type="move" name="aboveLC"/>
    </contour>
  </outline>
</glyph>
<glyph name="thook" format="1">
  <advance width="338"/>
  <outline>
    <contour>
      <point x="115" y="471" type="line"/>
      <point x="179" y="536" type="line"/>
      <point x="179" y="576"/>
      <point x="189" y="623"/>
      <point x="219" y="623" type="curve" smooth="yes"/>
      <point x="229" y="637"/>
      <point x="244" y="640"/>
      <point x="263" y="637" type="curve" smooth="yes"/>
      <point x="265" y="637"/>
      <point x="271" y="654"/>
      <point x="273" y="653" type="curve"/>
      <point x="265" y="657"/>
      <point x="265" y="706"/>
      <point x="255" y="706" type="curve"/>
      <point x="212" y="708"/>
      <point x="178" y="684"/>
      <point x="166" y="626" type="curve" smooth="yes"/>
      <point x="114" y="626"/>
      <point x="96" y="524"/>
      <point x="96" y="487" type="curve" smooth="yes"/>
    </contour>
  </outline>
</glyph>
<glyph name="tildeacutecmb.cap" format="1">
  <outline>
    <contour>
      <point x="-18" y="827" type="line"/>
      <point x="111" y="920" type="line"/>
      <point x="72" y="968" type="line"/>
      <point x="-49" y="865" type="line"/>
    </contour>
    <contour>
      <point x="-145" y="715" type="curve"/>
      <point x="-100" y="710" type="line"/>
      <point x="-96" y="740"/>
      <point x="-86" y="759"/>
      <point x="-62" y="759" type="curve" smooth="yes"/>
      <point x="-21" y="759"/>
      <point x="2" y="704"/>
      <point x="66" y="704" type="curve" smooth="yes"/>
      <point x="120" y="704"/>
      <point x="142" y="745"/>
      <point x="145" y="798" type="curve"/>
      <point x="100" y="803" type="line"/>
      <point x="96" y="773"/>
      <point x="86" y="754"/>
      <point x="62" y="754" type="curve" smooth="yes"/>
      <point x="21" y="754"/>
      <point x="-2" y="809"/>
      <point x="-66" y="809" type="curve" smooth="yes"/>
      <point x="-120" y="809"/>
      <point x="-142" y="768"/>
    </contour>
    <contour>
      <point x="0" y="678" type="move" name="_aboveUC"/>
    </contour>
  </outline>
</glyph>
<glyph name="tildeacutecmb" format="1">
  <outline>
    <contour>
      <point x="-34" y="705" type="line"/>
      <point x="107" y="794" type="line"/>
      <point x="69" y="843" type="line"/>
      <point x="-66" y="744" type="line"/>
    </contour>
    <contour>
      <point x="-143" y="582" type="curve"/>
      <point x="-100" y="578" type="line"/>
      <point x="-93" y="617"/>
      <point x="-85" y="636"/>
      <point x="-60" y="636" type="curve" smooth="yes"/>
      <point x="-16" y="636"/>
      <point x="1" y="574"/>
      <point x="64" y="574" type="curve" smooth="yes"/>
      <point x="117" y="574"/>
      <point x="138" y="620"/>
      <point x="143" y="679" type="curve"/>
      <point x="100" y="683" type="line"/>
      <point x="93" y="644"/>
      <point x="85" y="624"/>
      <point x="60" y="624" type="curve" smooth="yes"/>
      <point x="16" y="624"/>
      <point x="-1" y="687"/>
      <point x="-64" y="687" type="curve" smooth="yes"/>
      <point x="-117" y="687"/>
      <point x="-138" y="641"/>
    </contour>
    <contour>
      <point x="0" y="509" type="move" name="_aboveLC"/>
    </contour>
  </outline>
</glyph>
<glyph name="tturned" format="1">
  <advance width="338"/>
  <outline>
    <component base="t" xScale="-1.0" yScale="-1.0" xOffset="351" yOffset="486"/>
    <contour>
      <point x="169" y="507" type="move" name="aboveLC"/>
    </contour>
    <contour>
      <point x="169" y="-20" type="move" name="belowLC"/>
    </contour>
  </outline>
</glyph>
<glyph name="tugrik" format="1">
  <advance width="497"/>
  <outline>
    <contour>
      <point x="207" y="0" type="line"/>
      <point x="289" y="0" type="line"/>
      <point x="289" y="574" type="line"/>
      <point x="461" y="574" type="line"/>
      <point x="461" y="638" type="line"/>
      <point x="33" y="638" type="line"/>
      <point x="33" y="574" type="line"/>
      <point x="207" y="574" type="line"/>
    </contour>
    <contour>
      <point x="85" y="129" type="line"/>
      <point x="207" y="192" type="line"/>
      <point x="289" y="234" type="line"/>
      <point x="426" y="305" type="line"/>
      <point x="411" y="350" type="line"/>
      <point x="289" y="286" type="line"/>
      <point x="289" y="358" type="line"/>
      <point x="426" y="429" type="line"/>
      <point x="411" y="475" type="line"/>
      <point x="289" y="411" type="line"/>
      <point x="207" y="370" type="line"/>
      <point x="70" y="299" type="line"/>
      <point x="85" y="254" type="line"/>
      <point x="207" y="317" type="line"/>
      <point x="207" y="245" type="line"/>
      <point x="70" y="174" type="line"/>
    </contour>
  </outline>
</glyph>
<glyph name="ubar" format="1">
  <advance width="575"/>
  <outline>
    <contour>
      <point x="8" y="262" type="line"/>
      <point x="563" y="262" type="line"/>
      <point x="563" y="310" type="line"/>
      <point x="96" y="310" type="line"/>
      <point x="8" y="305" type="line"/>
    </contour>
    <component base="u" xOffset="19"/>
    <contour>
      <point x="295" y="507" type="move" name="aboveLC"/>
    </contour>
    <contour>
      <point x="287" y="0" type="move" name="baseLC"/>
    </contour>
    <contour>
      <point x="287" y="-20" type="move" name="belowLC"/>
    </contour>
  </outline>
</glyph>
<glyph name="uhorn" format="1">
  <advance width="544"/>
  <outline>
    <contour>
      <point x="460" y="454" type="line"/>
      <point x="508" y="470"/>
      <point x="558" y="507"/>
      <point x="558" y="588" type="curve" smooth="yes"/>
      <point x="558" y="617"/>
      <point x="548" y="645"/>
      <point x="535" y="667" type="curve"/>
      <point x="471" y="637" type="line"/>
      <point x="479" y="621"/>
      <point x="485" y="601"/>
      <point x="485" y="582" type="curve" smooth="yes"/>
      <point x="485" y="516"/>
      <point x="448" y="493"/>
      <point x="401" y="486" type="curve"/>
    </contour>
    <component base="u"/>
    <contour>
      <point x="276" y="507" type="move" name="aboveLC"/>
    </contour>
    <contour>
      <point x="284" y="-20" type="move" name="belowLC"/>
    </contour>
  </outline>
</glyph>
